Palanquin SemiBold.ufo
<glyph name="I" format="1">
  <advance width="291"/>
  <unicode hex="0049"/>
  <outline>
    <contour>
      <point x="89" y="0" type="line"/>
      <point x="201" y="0" type="line"/>
      <point x="201" y="680" type="line"/>
      <point x="89" y="680" type="line"/>
    </contour>
  </outline>
</glyph>
<glyph name="bar" format="1">
  <advance width="267"/>
  <unicode hex="007C"/>
  <outline>
    <contour>
      <point x="190" y="704" type="line"/>
      <point x="78" y="712" type="line"/>
      <point x="78" y="0" type="line"/>
      <point x="190" y="-9" type="line"/>
    </contour>
  </outline>
</glyph>
<glyph name="dv_Ha" format="1">
  <advance width="556"/>
  <unicode hex="0939"/>
  <outline>
    <contour>
      <point x="476" y="338" type="curve"/>
      <point x="416" y="356"/>
      <point x="359" y="360"/>
      <point x="302" y="360" type="curve" smooth="yes"/>
      <point x="281" y="360"/>
      <point x="267" y="358"/>
      <point x="248" y="358" type="curve" smooth="yes"/>
      <point x="219" y="358"/>
      <point x="197" y="380"/>
      <point x="197" y="398" type="curve" smooth="yes"/>
      <point x="197" y="422"/>
      <point x="222" y="440"/>
      <point x="253" y="440" type="curve" smooth="yes"/>
      <point x="458" y="440" type="line"/>
      <point x="458" y="583" type="line"/>
      <point x="568" y="583" type="line"/>
      <point x="551" y="680" type="line"/>
      <point x="-11" y="680" type="line"/>
      <point x="-5" y="647"/>
      <point x="0" y="615"/>
      <point x="5" y="583" type="curve"/>
      <point x="327" y="583" type="line"/>
      <point x="327" y="537" type="line"/>
      <point x="243" y="537" type="line" smooth="yes"/>
      <point x="157" y="537"/>
      <point x="79" y="485"/>
      <point x="79" y="402" type="curve" smooth="yes"/>
      <point x="79" y="367"/>
      <point x="97" y="331"/>
      <point x="131" y="306" type="curve"/>
      <point x="86" y="271"/>
      <point x="62" y="225"/>
      <point x="62" y="170" type="curve" smooth="yes"/>
      <point x="62" y="51"/>
      <point x="154" y="-18"/>
      <point x="314" y="-18" type="curve" smooth="yes"/>
      <point x="373" y="-18"/>
      <point x="422" y="-11"/>
      <point x="476" y="5" type="curve"/>
      <point x="468" y="38"/>
      <point x="458" y="72"/>
      <point x="449" y="106" type="curve"/>
      <point x="407" y="93"/>
      <point x="365" y="86"/>
      <point x="325" y="86" type="curve" smooth="yes"/>
      <point x="243" y="86"/>
      <point x="187" y="109"/>
      <point x="187" y="165" type="curve" smooth="yes"/>
      <point x="187" y="215"/>
      <point x="224" y="262"/>
      <point x="308" y="262" type="curve" smooth="yes"/>
      <point x="357" y="262"/>
      <point x="404" y="251"/>
      <point x="449" y="237" type="curve"/>
      <point x="458" y="270"/>
      <point x="468" y="305"/>
    </contour>
  </outline>
</glyph>
<glyph name="dv_BhHa" format="1">
  <advance width="990"/>
  <outline>
    <contour>
      <point x="909" y="338" type="curve"/>
      <point x="849" y="356"/>
      <point x="792" y="360"/>
      <point x="735" y="360" type="curve" smooth="yes"/>
      <point x="714" y="360"/>
      <point x="700" y="358"/>
      <point x="681" y="358" type="curve" smooth="yes"/>
      <point x="652" y="358"/>
      <point x="630" y="380"/>
      <point x="630" y="398" type="curve" smooth="yes"/>
      <point x="630" y="422"/>
      <point x="655" y="440"/>
      <point x="686" y="440" type="curve" smooth="yes"/>
      <point x="891" y="440" type="line"/>
      <point x="891" y="583" type="line"/>
      <point x="1001" y="583" type="line"/>
      <point x="984" y="680" type="line"/>
      <point x="422" y="680" type="line"/>
      <point x="428" y="647"/>
      <point x="433" y="615"/>
      <point x="438" y="583" type="curve"/>
      <point x="760" y="583" type="line"/>
      <point x="760" y="537" type="line"/>
      <point x="676" y="537" type="line" smooth="yes"/>
      <point x="590" y="537"/>
      <point x="512" y="485"/>
      <point x="512" y="402" type="curve" smooth="yes"/>
      <point x="512" y="374"/>
      <point x="523" y="346"/>
      <point x="544" y="323" type="curve"/>
      <point x="328" y="323" type="line"/>
      <point x="328" y="524" type="line" smooth="yes"/>
      <point x="328" y="629"/>
      <point x="271" y="697"/>
      <point x="176" y="697" type="curve" smooth="yes"/>
      <point x="106" y="697"/>
      <point x="42" y="648"/>
      <point x="42" y="576" type="curve" smooth="yes"/>
      <point x="42" y="501"/>
      <point x="95" y="450"/>
      <point x="173" y="450" type="curve" smooth="yes"/>
      <point x="183" y="450"/>
      <point x="197" y="450"/>
      <point x="209" y="455" type="curve"/>
      <point x="209" y="322" type="line"/>
      <point x="167" y="322"/>
      <point x="139" y="309"/>
      <point x="139" y="269" type="curve" smooth="yes"/>
      <point x="139" y="201"/>
      <point x="211" y="149"/>
      <point x="278" y="149" type="curve" smooth="yes"/>
      <point x="297" y="149"/>
      <point x="328" y="169"/>
      <point x="328" y="227" type="curve"/>
      <point x="504" y="227" type="line"/>
      <point x="498" y="209"/>
      <point x="495" y="190"/>
      <point x="495" y="170" type="curve" smooth="yes"/>
      <point x="495" y="51"/>
      <point x="587" y="-18"/>
      <point x="747" y="-18" type="curve" smooth="yes"/>
      <point x="806" y="-18"/>
      <point x="855" y="-11"/>
      <point x="909" y="5" type="curve"/>
      <point x="901" y="38"/>
      <point x="891" y="72"/>
      <point x="882" y="106" type="curve"/>
      <point x="840" y="93"/>
      <point x="798" y="86"/>
      <point x="758" y="86" type="curve" smooth="yes"/>
      <point x="676" y="86"/>
      <point x="620" y="109"/>
      <point x="620" y="165" type="curve" smooth="yes"/>
      <point x="620" y="215"/>
      <point x="657" y="262"/>
      <point x="741" y="262" type="curve" smooth="yes"/>
      <point x="790" y="262"/>
      <point x="837" y="251"/>
      <point x="882" y="237" type="curve"/>
      <point x="891" y="270"/>
      <point x="901" y="305"/>
    </contour>
    <contour>
      <point x="180" y="541" type="curve" smooth="yes"/>
      <point x="164" y="541"/>
      <point x="151" y="552"/>
      <point x="151" y="570" type="curve" smooth="yes"/>
      <point x="151" y="587"/>
      <point x="162" y="599"/>
      <point x="178" y="599" type="curve" smooth="yes"/>
      <point x="198" y="599"/>
      <point x="209" y="581"/>
      <point x="210" y="555" type="curve"/>
      <point x="202" y="548"/>
      <point x="191" y="541"/>
    </contour>
  </outline>
</glyph>
<glyph name="dv_CHa" format="1">
  <advance width="942"/>
  <outline>
    <contour>
      <point x="861" y="338" type="curve"/>
      <point x="801" y="356"/>
      <point x="744" y="360"/>
      <point x="687" y="360" type="curve" smooth="yes"/>
      <point x="666" y="360"/>
      <point x="652" y="358"/>
      <point x="633" y="358" type="curve" smooth="yes"/>
      <point x="604" y="358"/>
      <point x="582" y="380"/>
      <point x="582" y="398" type="curve" smooth="yes"/>
      <point x="582" y="422"/>
      <point x="607" y="440"/>
      <point x="638" y="440" type="curve" smooth="yes"/>
      <point x="843" y="440" type="line"/>
      <point x="843" y="583" type="line"/>
      <point x="953" y="583" type="line"/>
      <point x="936" y="680" type="line"/>
      <point x="-11" y="680" type="line"/>
      <point x="-5" y="647"/>
      <point x="0" y="615"/>
      <point x="5" y="583" type="curve"/>
      <point x="712" y="583" type="line"/>
      <point x="712" y="537" type="line"/>
      <point x="628" y="537" type="line" smooth="yes"/>
      <point x="542" y="537"/>
      <point x="464" y="485"/>
      <point x="464" y="402" type="curve" smooth="yes"/>
      <point x="464" y="367"/>
      <point x="482" y="331"/>
      <point x="516" y="306" type="curve"/>
      <point x="479" y="277"/>
      <point x="457" y="242"/>
      <point x="449" y="200" type="curve"/>
      <point x="426" y="185"/>
      <point x="396" y="177"/>
      <point x="364" y="177" type="curve" smooth="yes"/>
      <point x="296" y="177"/>
      <point x="242" y="215"/>
      <point x="242" y="276" type="curve" smooth="yes"/>
      <point x="242" y="332"/>
      <point x="284" y="374"/>
      <point x="371" y="374" type="curve" smooth="yes"/>
      <point x="408" y="374" type="line"/>
      <point x="392" y="471" type="line"/>
      <point x="35" y="471" type="line"/>
      <point x="51" y="374" type="line"/>
      <point x="159" y="374" type="line"/>
      <point x="141" y="346"/>
      <point x="129" y="315"/>
      <point x="129" y="276" type="curve" smooth="yes"/>
      <point x="129" y="145"/>
      <point x="236" y="76"/>
      <point x="364" y="76" type="curve" smooth="yes"/>
      <point x="395" y="76"/>
      <point x="433" y="82"/>
      <point x="463" y="92" type="curve"/>
      <point x="496" y="21"/>
      <point x="578" y="-18"/>
      <point x="699" y="-18" type="curve" smooth="yes"/>
      <point x="758" y="-18"/>
      <point x="807" y="-11"/>
      <point x="861" y="5" type="curve"/>
      <point x="853" y="38"/>
      <point x="843" y="72"/>
      <point x="834" y="106" type="curve"/>
      <point x="792" y="93"/>
      <point x="750" y="86"/>
      <point x="710" y="86" type="curve" smooth="yes"/>
      <point x="628" y="86"/>
      <point x="572" y="109"/>
      <point x="572" y="165" type="curve" smooth="yes"/>
      <point x="572" y="215"/>
      <point x="609" y="262"/>
      <point x="693" y="262" type="curve" smooth="yes"/>
      <point x="742" y="262"/>
      <point x="789" y="251"/>
      <point x="834" y="237" type="curve"/>
      <point x="843" y="270"/>
      <point x="853" y="305"/>
    </contour>
  </outline>
</glyph>
<glyph name="dv_DhHa" format="1">
  <advance width="948"/>
  <outline>
    <contour>
      <point x="867" y="338" type="curve"/>
      <point x="807" y="356"/>
      <point x="750" y="360"/>
      <point x="693" y="360" type="curve" smooth="yes"/>
      <point x="672" y="360"/>
      <point x="658" y="358"/>
      <point x="639" y="358" type="curve" smooth="yes"/>
      <point x="610" y="358"/>
      <point x="588" y="380"/>
      <point x="588" y="398" type="curve" smooth="yes"/>
      <point x="588" y="422"/>
      <point x="613" y="440"/>
      <point x="644" y="440" type="curve" smooth="yes"/>
      <point x="849" y="440" type="line"/>
      <point x="849" y="583" type="line"/>
      <point x="959" y="583" type="line"/>
      <point x="942" y="680" type="line"/>
      <point x="408" y="680" type="line"/>
      <point x="414" y="647"/>
      <point x="419" y="615"/>
      <point x="424" y="583" type="curve"/>
      <point x="718" y="583" type="line"/>
      <point x="718" y="537" type="line"/>
      <point x="634" y="537" type="line" smooth="yes"/>
      <point x="548" y="537"/>
      <point x="470" y="485"/>
      <point x="470" y="402" type="curve" smooth="yes"/>
      <point x="470" y="367"/>
      <point x="488" y="331"/>
      <point x="522" y="306" type="curve"/>
      <point x="500" y="289"/>
      <point x="483" y="269"/>
      <point x="471" y="247" type="curve"/>
      <point x="425" y="192"/>
      <point x="368" y="173"/>
      <point x="308" y="173" type="curve" smooth="yes"/>
      <point x="234" y="173"/>
      <point x="188" y="211"/>
      <point x="188" y="261" type="curve" smooth="yes"/>
      <point x="188" y="310"/>
      <point x="223" y="353"/>
      <point x="302" y="353" type="curve" smooth="yes"/>
      <point x="361" y="353" type="line"/>
      <point x="341" y="446" type="line"/>
      <point x="295" y="446" type="line" smooth="yes"/>
      <point x="230" y="446"/>
      <point x="194" y="480"/>
      <point x="194" y="525" type="curve" smooth="yes"/>
      <point x="194" y="561"/>
      <point x="238" y="587"/>
      <point x="261" y="587" type="curve" smooth="yes"/>
      <point x="288" y="587"/>
      <point x="309" y="581"/>
      <point x="331" y="561" type="curve"/>
      <point x="389" y="640" type="line"/>
      <point x="365" y="665"/>
      <point x="322" y="694"/>
      <point x="257" y="694" type="curve" smooth="yes"/>
      <point x="148" y="694"/>
      <point x="76" y="615"/>
      <point x="76" y="529" type="curve" smooth="yes"/>
      <point x="76" y="479"/>
      <point x="98" y="430"/>
      <point x="133" y="403" type="curve"/>
      <point x="90" y="376"/>
      <point x="65" y="319"/>
      <point x="65" y="259" type="curve" smooth="yes"/>
      <point x="65" y="146"/>
      <point x="147" y="64"/>
      <point x="300" y="64" type="curve" smooth="yes"/>
      <point x="361" y="64"/>
      <point x="417" y="81"/>
      <point x="463" y="106" type="curve"/>
      <point x="491" y="26"/>
      <point x="576" y="-18"/>
      <point x="705" y="-18" type="curve" smooth="yes"/>
      <point x="764" y="-18"/>
      <point x="813" y="-11"/>
      <point x="867" y="5" type="curve"/>
      <point x="859" y="38"/>
      <point x="849" y="72"/>
      <point x="840" y="106" type="curve"/>
      <point x="798" y="93"/>
      <point x="756" y="86"/>
      <point x="716" y="86" type="curve" smooth="yes"/>
      <point x="634" y="86"/>
      <point x="578" y="109"/>
      <point x="578" y="165" type="curve" smooth="yes"/>
      <point x="578" y="215"/>
      <point x="615" y="262"/>
      <point x="699" y="262" type="curve" smooth="yes"/>
      <point x="748" y="262"/>
      <point x="795" y="251"/>
      <point x="840" y="237" type="curve"/>
      <point x="849" y="270"/>
      <point x="859" y="305"/>
    </contour>
  </outline>
</glyph>
<glyph name="dv_GRYa" format="1">
  <advance width="1004"/>
  <outline>
    <contour>
      <point x="491" y="498" type="curve" smooth="yes"/>
      <point x="491" y="441"/>
      <point x="457" y="393"/>
      <point x="425" y="385" type="curve"/>
      <point x="404" y="360" type="line"/>
      <point x="404" y="265"/>
      <point x="500" y="183"/>
      <point x="601" y="163" type="curve"/>
      <point x="411" y="20" type="line"/>
      <point x="492" y="-49" type="line"/>
      <point x="586" y="26"/>
      <point x="681" y="101"/>
      <point x="775" y="177" type="curve"/>
      <point x="775" y="0" type="line"/>
      <point x="900" y="-16" type="line"/>
      <point x="900" y="583" type="line"/>
      <point x="1015" y="583" type="line"/>
      <point x="1010" y="615"/>
      <point x="1005" y="647"/>
      <point x="999" y="680" type="curve"/>
      <point x="-11" y="680" type="line"/>
      <point x="-5" y="647"/>
      <point x="0" y="615"/>
      <point x="5" y="583" type="curve"/>
      <point x="126" y="583" type="line"/>
      <point x="126" y="329" type="line"/>
      <point x="92" y="329"/>
      <point x="57" y="312"/>
      <point x="57" y="282" type="curve" smooth="yes"/>
      <point x="57" y="227"/>
      <point x="128" y="149"/>
      <point x="199" y="149" type="curve" smooth="yes"/>
      <point x="232" y="149"/>
      <point x="249" y="175"/>
      <point x="249" y="216" type="curve" smooth="yes"/>
      <point x="249" y="583" type="line"/>
      <point x="435" y="583" type="line"/>
      <point x="467" y="571"/>
      <point x="491" y="538"/>
    </contour>
    <contour>
      <point x="775" y="583" type="line"/>
      <point x="775" y="365" type="line"/>
      <point x="769" y="300"/>
      <point x="715" y="260"/>
      <point x="648" y="260" type="curve" smooth="yes"/>
      <point x="577" y="260"/>
      <point x="538" y="303"/>
      <point x="521" y="336" type="curve"/>
      <point x="576" y="372"/>
      <point x="601" y="433"/>
      <point x="601" y="492" type="curve" smooth="yes"/>
      <point x="601" y="527"/>
      <point x="590" y="562"/>
      <point x="576" y="583" type="curve"/>
    </contour>
  </outline>
</glyph>
<glyph name="dv_GhHa" format="1">
  <advance width="932"/>
  <outline>
    <contour>
      <point x="853" y="338" type="line"/>
      <point x="793" y="356"/>
      <point x="736" y="360"/>
      <point x="678" y="360" type="curve" smooth="yes"/>
      <point x="658" y="360"/>
      <point x="643" y="358"/>
      <point x="625" y="358" type="curve" smooth="yes"/>
      <point x="595" y="358"/>
      <point x="573" y="375"/>
      <point x="573" y="398" type="curve" smooth="yes"/>
      <point x="573" y="422"/>
      <point x="597" y="440"/>
      <point x="629" y="440" type="curve" smooth="yes"/>
      <point x="834" y="440" type="line"/>
      <point x="834" y="583" type="line"/>
      <point x="944" y="583" type="line"/>
      <point x="938" y="615"/>
      <point x="933" y="647"/>
      <point x="928" y="680" type="curve"/>
      <point x="-11" y="680" type="line"/>
      <point x="-5" y="647"/>
      <point x="0" y="615"/>
      <point x="5" y="583" type="curve"/>
      <point x="91" y="583" type="line"/>
      <point x="82" y="566"/>
      <point x="76" y="544"/>
      <point x="76" y="529" type="curve" smooth="yes"/>
      <point x="76" y="479"/>
      <point x="98" y="430"/>
      <point x="133" y="403" type="curve"/>
      <point x="90" y="376"/>
      <point x="65" y="319"/>
      <point x="65" y="259" type="curve" smooth="yes"/>
      <point x="65" y="146"/>
      <point x="146" y="64"/>
      <point x="300" y="64" type="curve" smooth="yes"/>
      <point x="356" y="64"/>
      <point x="408" y="78"/>
      <point x="453" y="100" type="curve"/>
      <point x="482" y="23"/>
      <point x="565" y="-18"/>
      <point x="690" y="-18" type="curve" smooth="yes"/>
      <point x="751" y="-18"/>
      <point x="797" y="-11"/>
      <point x="853" y="5" type="curve"/>
      <point x="825" y="106" type="line"/>
      <point x="784" y="93"/>
      <point x="741" y="86"/>
      <point x="702" y="86" type="curve" smooth="yes"/>
      <point x="617" y="86"/>
      <point x="564" y="125"/>
      <point x="564" y="174" type="curve" smooth="yes"/>
      <point x="564" y="223"/>
      <point x="602" y="262"/>
      <point x="684" y="262" type="curve" smooth="yes"/>
      <point x="733" y="262"/>
      <point x="780" y="251"/>
      <point x="825" y="237" type="curve"/>
    </contour>
    <contour>
      <point x="308" y="173" type="curve" smooth="yes"/>
      <point x="234" y="173"/>
      <point x="188" y="211"/>
      <point x="188" y="261" type="curve" smooth="yes"/>
      <point x="188" y="310"/>
      <point x="225" y="353"/>
      <point x="302" y="353" type="curve" smooth="yes"/>
      <point x="361" y="353" type="line"/>
      <point x="341" y="446" type="line"/>
      <point x="295" y="446" type="line" smooth="yes"/>
      <point x="229" y="446"/>
      <point x="194" y="482"/>
      <point x="194" y="528" type="curve" smooth="yes"/>
      <point x="194" y="549"/>
      <point x="206" y="573"/>
      <point x="224" y="583" type="curve"/>
      <point x="703" y="583" type="line"/>
      <point x="703" y="537" type="line"/>
      <point x="631" y="537" type="line" smooth="yes"/>
      <point x="538" y="537"/>
      <point x="454" y="493"/>
      <point x="454" y="401" type="curve" smooth="yes"/>
      <point x="454" y="365"/>
      <point x="474" y="330"/>
      <point x="507" y="306" type="curve"/>
      <point x="478" y="283"/>
      <point x="457" y="256"/>
      <point x="447" y="225" type="curve"/>
      <point x="406" y="187"/>
      <point x="360" y="173"/>
    </contour>
  </outline>
</glyph>
<glyph name="dv_HLa" format="1">
  <advance width="1300"/>
  <outline>
    <contour>
      <point x="1072" y="0" type="line"/>
      <point x="1195" y="-16" type="line"/>
      <point x="1195" y="583" type="line"/>
      <point x="1311" y="583" type="line"/>
      <point x="1305" y="615"/>
      <point x="1300" y="647"/>
      <point x="1295" y="680" type="curve"/>
      <point x="-11" y="680" type="line"/>
      <point x="-5" y="647"/>
      <point x="0" y="615"/>
      <point x="5" y="583" type="curve"/>
      <point x="327" y="583" type="line"/>
      <point x="327" y="537" type="line"/>
      <point x="243" y="537" type="line" smooth="yes"/>
      <point x="157" y="537"/>
      <point x="78" y="482"/>
      <point x="78" y="401" type="curve" smooth="yes"/>
      <point x="78" y="365"/>
      <point x="98" y="330"/>
      <point x="131" y="306" type="curve"/>
      <point x="86" y="271"/>
      <point x="62" y="225"/>
      <point x="62" y="170" type="curve" smooth="yes"/>
      <point x="62" y="52"/>
      <point x="153" y="-18"/>
      <point x="314" y="-18" type="curve" smooth="yes"/>
      <point x="374" y="-18"/>
      <point x="423" y="-11"/>
      <point x="476" y="5" type="curve"/>
      <point x="468" y="38"/>
      <point x="458" y="72"/>
      <point x="449" y="106" type="curve"/>
      <point x="409" y="93"/>
      <point x="373" y="89"/>
      <point x="327" y="89" type="curve" smooth="yes"/>
      <point x="238" y="89"/>
      <point x="185" y="113"/>
      <point x="185" y="173" type="curve" smooth="yes"/>
      <point x="185" y="220"/>
      <point x="223" y="252"/>
      <point x="286" y="257" type="curve"/>
      <point x="292" y="260"/>
      <point x="299" y="262"/>
      <point x="308" y="262" type="curve" smooth="yes"/>
      <point x="505" y="262" type="line"/>
      <point x="517" y="177"/>
      <point x="561" y="96"/>
      <point x="623" y="-22" type="curve"/>
      <point x="655" y="-11"/>
      <point x="688" y="0"/>
      <point x="721" y="10" type="curve"/>
      <point x="649" y="154"/>
      <point x="612" y="227"/>
      <point x="612" y="297" type="curve" smooth="yes"/>
      <point x="612" y="333"/>
      <point x="642" y="394"/>
      <point x="700" y="394" type="curve" smooth="yes"/>
      <point x="772" y="394"/>
      <point x="794" y="339"/>
      <point x="794" y="277" type="curve" smooth="yes"/>
      <point x="794" y="152" type="line"/>
      <point x="831" y="148"/>
      <point x="868" y="142"/>
      <point x="906" y="138" type="curve"/>
      <point x="906" y="277" type="line" smooth="yes"/>
      <point x="906" y="347"/>
      <point x="937" y="395"/>
      <point x="988" y="395" type="curve" smooth="yes"/>
      <point x="1052" y="395"/>
      <point x="1072" y="338"/>
      <point x="1072" y="256" type="curve" smooth="yes"/>
    </contour>
    <contour>
      <point x="248" y="358" type="curve" smooth="yes"/>
      <point x="219" y="358"/>
      <point x="197" y="375"/>
      <point x="197" y="398" type="curve" smooth="yes"/>
      <point x="197" y="422"/>
      <point x="221" y="440"/>
      <point x="253" y="440" type="curve" smooth="yes"/>
      <point x="458" y="440" type="line"/>
      <point x="458" y="583" type="line"/>
      <point x="1072" y="583" type="line"/>
      <point x="1072" y="475" type="line"/>
      <point x="1050" y="489"/>
      <point x="1018" y="497"/>
      <point x="989" y="497" type="curve" smooth="yes"/>
      <point x="934" y="497"/>
      <point x="881" y="476"/>
      <point x="848" y="437" type="curve"/>
      <point x="813" y="474"/>
      <point x="758" y="497"/>
      <point x="700" y="497" type="curve" smooth="yes"/>
      <point x="591" y="497"/>
      <point x="529" y="435"/>
      <point x="506" y="360" type="curve"/>
      <point x="302" y="360" type="line" smooth="yes"/>
      <point x="281" y="360"/>
      <point x="267" y="358"/>
    </contour>
  </outline>
</glyph>
<glyph name="dv_HLa.MAR" format="1">
  <advance width="1250"/>
  <outline>
    <contour>
      <point x="989" y="393" type="curve" smooth="yes"/>
      <point x="1041" y="393"/>
      <point x="1078" y="353"/>
      <point x="1078" y="309" type="curve" smooth="yes"/>
      <point x="1078" y="236"/>
      <point x="1047" y="170"/>
      <point x="969" y="10" type="curve"/>
      <point x="1002" y="0"/>
      <point x="1033" y="-11"/>
      <point x="1066" y="-22" type="curve"/>
      <point x="1142" y="125"/>
      <point x="1188" y="212"/>
      <point x="1188" y="317" type="curve" smooth="yes"/>
      <point x="1188" y="391"/>
      <point x="1132" y="460"/>
      <point x="1054" y="485" type="curve"/>
      <point x="1054" y="583" type="line"/>
      <point x="1261" y="583" type="line"/>
      <point x="1245" y="680" type="line"/>
      <point x="-11" y="680" type="line"/>
      <point x="-5" y="647"/>
      <point x="0" y="615"/>
      <point x="5" y="583" type="curve"/>
      <point x="327" y="583" type="line"/>
      <point x="327" y="537" type="line"/>
      <point x="243" y="537" type="line" smooth="yes"/>
      <point x="157" y="537"/>
      <point x="78" y="487"/>
      <point x="78" y="401" type="curve" smooth="yes"/>
      <point x="78" y="365"/>
      <point x="98" y="330"/>
      <point x="131" y="306" type="curve"/>
      <point x="86" y="271"/>
      <point x="62" y="225"/>
      <point x="62" y="170" type="curve" smooth="yes"/>
      <point x="62" y="52"/>
      <point x="153" y="-18"/>
      <point x="314" y="-18" type="curve" smooth="yes"/>
      <point x="373" y="-18"/>
      <point x="422" y="-11"/>
      <point x="476" y="5" type="curve"/>
      <point x="468" y="38"/>
      <point x="458" y="72"/>
      <point x="449" y="106" type="curve"/>
      <point x="406" y="93"/>
      <point x="365" y="88"/>
      <point x="318" y="88" type="curve" smooth="yes"/>
      <point x="235" y="88"/>
      <point x="185" y="116"/>
      <point x="185" y="173" type="curve" smooth="yes"/>
      <point x="185" y="239"/>
      <point x="250" y="262"/>
      <point x="345" y="262" type="curve" smooth="yes"/>
      <point x="505" y="262" type="line"/>
      <point x="517" y="177"/>
      <point x="560" y="96"/>
      <point x="622" y="-22" type="curve"/>
      <point x="720" y="10" type="line"/>
      <point x="641" y="170"/>
      <point x="610" y="236"/>
      <point x="610" y="309" type="curve" smooth="yes"/>
      <point x="610" y="353"/>
      <point x="647" y="393"/>
      <point x="699" y="393" type="curve" smooth="yes"/>
      <point x="767" y="393"/>
      <point x="793" y="346"/>
      <point x="793" y="277" type="curve" smooth="yes"/>
      <point x="793" y="152" type="line"/>
      <point x="831" y="148"/>
      <point x="868" y="142"/>
      <point x="905" y="138" type="curve"/>
      <point x="905" y="277" type="line" smooth="yes"/>
      <point x="905" y="347"/>
      <point x="937" y="393"/>
    </contour>
    <contour>
      <point x="248" y="358" type="curve" smooth="yes"/>
      <point x="219" y="358"/>
      <point x="197" y="380"/>
      <point x="197" y="398" type="curve" smooth="yes"/>
      <point x="197" y="422"/>
      <point x="222" y="440"/>
      <point x="253" y="440" type="curve" smooth="yes"/>
      <point x="458" y="440" type="line"/>
      <point x="458" y="583" type="line"/>
      <point x="931" y="583" type="line"/>
      <point x="931" y="489" type="line"/>
      <point x="897" y="480"/>
      <point x="868" y="463"/>
      <point x="847" y="437" type="curve"/>
      <point x="813" y="473"/>
      <point x="758" y="495"/>
      <point x="702" y="495" type="curve" smooth="yes"/>
      <point x="611" y="495"/>
      <point x="529" y="437"/>
      <point x="505" y="360" type="curve"/>
      <point x="302" y="360" type="line" smooth="yes"/>
      <point x="281" y="360"/>
      <point x="267" y="358"/>
    </contour>
  </outline>
</glyph>
<glyph name="dv_HMYa" format="1">
  <advance width="1510"/>
  <outline>
    <contour>
      <point x="555" y="262" type="line"/>
      <point x="561" y="200"/>
      <point x="628" y="149"/>
      <point x="693" y="149" type="curve" smooth="yes"/>
      <point x="736" y="149"/>
      <point x="744" y="199"/>
      <point x="744" y="227" type="curve"/>
      <point x="975" y="227" type="line"/>
      <point x="1019" y="185"/>
      <point x="1083" y="157"/>
      <point x="1149" y="157" type="curve" smooth="yes"/>
      <point x="1212" y="157"/>
      <point x="1250" y="172"/>
      <point x="1282" y="191" type="curve"/>
      <point x="1282" y="0" type="line"/>
      <point x="1404" y="-16" type="line"/>
      <point x="1404" y="583" type="line"/>
      <point x="1521" y="583" type="line"/>
      <point x="1504" y="680" type="line"/>
      <point x="-11" y="680" type="line"/>
      <point x="-5" y="647"/>
      <point x="0" y="615"/>
      <point x="5" y="583" type="curve"/>
      <point x="327" y="583" type="line"/>
      <point x="327" y="537" type="line"/>
      <point x="243" y="537" type="line" smooth="yes"/>
      <point x="157" y="537"/>
      <point x="78" y="487"/>
      <point x="78" y="401" type="curve" smooth="yes"/>
      <point x="78" y="365"/>
      <point x="98" y="330"/>
      <point x="131" y="306" type="curve"/>
      <point x="86" y="271"/>
      <point x="62" y="225"/>
      <point x="62" y="170" type="curve" smooth="yes"/>
      <point x="62" y="52"/>
      <point x="155" y="-18"/>
      <point x="314" y="-18" type="curve" smooth="yes"/>
      <point x="373" y="-18"/>
      <point x="422" y="-11"/>
      <point x="476" y="5" type="curve"/>
      <point x="468" y="38"/>
      <point x="458" y="72"/>
      <point x="449" y="106" type="curve"/>
      <point x="407" y="92"/>
      <point x="355" y="86"/>
      <point x="309" y="86" type="curve" smooth="yes"/>
      <point x="232" y="86"/>
      <point x="185" y="119"/>
      <point x="185" y="173" type="curve" smooth="yes"/>
      <point x="185" y="227"/>
      <point x="233" y="262"/>
      <point x="308" y="262" type="curve" smooth="yes"/>
    </contour>
    <contour>
      <point x="1282" y="583" type="line"/>
      <point x="1282" y="365" type="line"/>
      <point x="1275" y="300"/>
      <point x="1219" y="260"/>
      <point x="1153" y="260" type="curve" smooth="yes"/>
      <point x="1082" y="260"/>
      <point x="1044" y="303"/>
      <point x="1026" y="336" type="curve"/>
      <point x="1082" y="371"/>
      <point x="1107" y="434"/>
      <point x="1107" y="492" type="curve" smooth="yes"/>
      <point x="1107" y="527"/>
      <point x="1095" y="562"/>
      <point x="1083" y="583" type="curve"/>
    </contour>
    <contour>
      <point x="997" y="498" type="curve" smooth="yes"/>
      <point x="997" y="440"/>
      <point x="965" y="395"/>
      <point x="932" y="385" type="curve"/>
      <point x="909" y="360" type="line"/>
      <point x="909" y="347"/>
      <point x="911" y="335"/>
      <point x="914" y="322" type="curve"/>
      <point x="744" y="322" type="line"/>
      <point x="744" y="583" type="line"/>
      <point x="940" y="583" type="line"/>
      <point x="973" y="571"/>
      <point x="997" y="538"/>
    </contour>
    <contour>
      <point x="625" y="360" type="line"/>
      <point x="302" y="360" type="line" smooth="yes"/>
      <point x="281" y="360"/>
      <point x="267" y="358"/>
      <point x="248" y="358" type="curve" smooth="yes"/>
      <point x="219" y="358"/>
      <point x="197" y="375"/>
      <point x="197" y="398" type="curve" smooth="yes"/>
      <point x="197" y="422"/>
      <point x="221" y="440"/>
      <point x="253" y="440" type="curve" smooth="yes"/>
      <point x="458" y="440" type="line"/>
      <point x="458" y="583" type="line"/>
      <point x="625" y="583" type="line"/>
    </contour>
  </outline>
</glyph>
<glyph name="dv_HM.half" format="1">
  <advance width="658"/>
  <outline>
    <contour>
      <point x="767" y="270" type="line"/>
      <point x="767" y="366" type="line"/>
      <point x="472" y="366" type="line" smooth="yes"/>
      <point x="443" y="366"/>
      <point x="413" y="360"/>
      <point x="399" y="355" type="curve"/>
      <point x="367" y="359"/>
      <point x="334" y="360"/>
      <point x="302" y="360" type="curve" smooth="yes"/>
      <point x="281" y="360"/>
      <point x="267" y="358"/>
      <point x="248" y="358" type="curve" smooth="yes"/>
      <point x="219" y="358"/>
      <point x="197" y="375"/>
      <point x="197" y="398" type="curve" smooth="yes"/>
      <point x="197" y="422"/>
      <point x="221" y="440"/>
      <point x="253" y="440" type="curve" smooth="yes"/>
      <point x="458" y="440" type="line"/>
      <point x="458" y="583" type="line"/>
      <point x="670" y="583" type="line"/>
      <point x="664" y="615"/>
      <point x="660" y="647"/>
      <point x="654" y="680" type="curve"/>
      <point x="-11" y="680" type="line"/>
      <point x="-5" y="647"/>
      <point x="0" y="615"/>
      <point x="5" y="583" type="curve"/>
      <point x="327" y="583" type="line"/>
      <point x="327" y="537" type="line"/>
      <point x="243" y="537" type="line" smooth="yes"/>
      <point x="159" y="537"/>
      <point x="78" y="486"/>
      <point x="78" y="401" type="curve" smooth="yes"/>
      <point x="78" y="365"/>
      <point x="98" y="330"/>
      <point x="131" y="306" type="curve"/>
      <point x="86" y="271"/>
      <point x="62" y="225"/>
      <point x="62" y="170" type="curve" smooth="yes"/>
      <point x="62" y="52"/>
      <point x="155" y="-18"/>
      <point x="314" y="-18" type="curve" smooth="yes"/>
      <point x="373" y="-18"/>
      <point x="422" y="-11"/>
      <point x="476" y="5" type="curve"/>
      <point x="468" y="38"/>
      <point x="458" y="72"/>
      <point x="449" y="106" type="curve"/>
      <point x="407" y="92"/>
      <point x="355" y="86"/>
      <point x="309" y="86" type="curve" smooth="yes"/>
      <point x="232" y="86"/>
      <point x="185" y="119"/>
      <point x="185" y="173" type="curve" smooth="yes"/>
      <point x="185" y="227"/>
      <point x="233" y="262"/>
      <point x="308" y="262" type="curve" smooth="yes"/>
      <point x="338" y="262"/>
      <point x="368" y="257"/>
      <point x="397" y="251" type="curve"/>
      <point x="424" y="216"/>
      <point x="470" y="192"/>
      <point x="507" y="192" type="curve" smooth="yes"/>
      <point x="533" y="192"/>
      <point x="553" y="220"/>
      <point x="553" y="270" type="curve"/>
    </contour>
  </outline>
</glyph>
<glyph name="dv_HMa" format="1">
  <advance width="989"/>
  <outline>
    <contour>
      <point x="761" y="276" type="line"/>
      <point x="761" y="0" type="line"/>
      <point x="884" y="-16" type="line"/>
      <point x="884" y="583" type="line"/>
      <point x="1001" y="583" type="line"/>
      <point x="985" y="680" type="line"/>
      <point x="-11" y="680" type="line"/>
      <point x="-5" y="647"/>
      <point x="0" y="615"/>
      <point x="5" y="583" type="curve"/>
      <point x="327" y="583" type="line"/>
      <point x="327" y="537" type="line"/>
      <point x="243" y="537" type="line" smooth="yes"/>
      <point x="157" y="537"/>
      <point x="78" y="487"/>
      <point x="78" y="401" type="curve" smooth="yes"/>
      <point x="78" y="365"/>
      <point x="98" y="330"/>
      <point x="131" y="306" type="curve"/>
      <point x="86" y="271"/>
      <point x="62" y="225"/>
      <point x="62" y="170" type="curve" smooth="yes"/>
      <point x="62" y="52"/>
      <point x="153" y="-18"/>
      <point x="314" y="-18" type="curve" smooth="yes"/>
      <point x="374" y="-18"/>
      <point x="423" y="-11"/>
      <point x="476" y="5" type="curve"/>
      <point x="468" y="38"/>
      <point x="458" y="72"/>
      <point x="449" y="106" type="curve"/>
      <point x="406" y="93"/>
      <point x="365" y="88"/>
      <point x="318" y="88" type="curve" smooth="yes"/>
      <point x="235" y="88"/>
      <point x="185" y="116"/>
      <point x="185" y="173" type="curve" smooth="yes"/>
      <point x="185" y="227"/>
      <point x="233" y="262"/>
      <point x="308" y="262" type="curve" smooth="yes"/>
      <point x="340" y="262"/>
      <point x="372" y="257"/>
      <point x="403" y="249" type="curve"/>
      <point x="430" y="219"/>
      <point x="472" y="198"/>
      <point x="507" y="198" type="curve" smooth="yes"/>
      <point x="547" y="198"/>
      <point x="555" y="257"/>
      <point x="556" y="276" type="curve"/>
    </contour>
    <contour>
      <point x="302" y="360" type="curve" smooth="yes"/>
      <point x="286" y="360"/>
      <point x="275" y="358"/>
      <point x="256" y="358" type="curve" smooth="yes"/>
      <point x="225" y="358"/>
      <point x="197" y="376"/>
      <point x="197" y="398" type="curve" smooth="yes"/>
      <point x="197" y="422"/>
      <point x="222" y="440"/>
      <point x="253" y="440" type="curve" smooth="yes"/>
      <point x="458" y="440" type="line"/>
      <point x="458" y="583" type="line"/>
      <point x="761" y="583" type="line"/>
      <point x="761" y="372" type="line"/>
      <point x="471" y="372" type="line" smooth="yes"/>
      <point x="440" y="372"/>
      <point x="403" y="365"/>
      <point x="390" y="355" type="curve"/>
      <point x="360" y="359"/>
      <point x="331" y="360"/>
    </contour>
  </outline>
</glyph>
<glyph name="dv_HMatraU" format="1">
  <advance width="556"/>
  <outline>
    <contour>
      <point x="476" y="338" type="curve"/>
      <point x="416" y="356"/>
      <point x="359" y="360"/>
      <point x="302" y="360" type="curve" smooth="yes"/>
      <point x="281" y="360"/>
      <point x="267" y="358"/>
      <point x="248" y="358" type="curve" smooth="yes"/>
      <point x="219" y="358"/>
      <point x="197" y="380"/>
      <point x="197" y="398" type="curve" smooth="yes"/>
      <point x="197" y="422"/>
      <point x="222" y="440"/>
      <point x="253" y="440" type="curve" smooth="yes"/>
      <point x="458" y="440" type="line"/>
      <point x="458" y="583" type="line"/>
      <point x="568" y="583" type="line"/>
      <point x="551" y="680" type="line"/>
      <point x="-11" y="680" type="line"/>
      <point x="-5" y="647"/>
      <point x="0" y="615"/>
      <point x="5" y="583" type="curve"/>
      <point x="327" y="583" type="line"/>
      <point x="327" y="537" type="line"/>
      <point x="243" y="537" type="line" smooth="yes"/>
      <point x="157" y="537"/>
      <point x="79" y="485"/>
      <point x="79" y="402" type="curve" smooth="yes"/>
      <point x="79" y="367"/>
      <point x="97" y="331"/>
      <point x="131" y="306" type="curve"/>
      <point x="86" y="271"/>
      <point x="62" y="225"/>
      <point x="62" y="170" type="curve" smooth="yes"/>
      <point x="62" y="51"/>
      <point x="153" y="-18"/>
      <point x="313" y="-18" type="curve"/>
      <point x="337" y="-31"/>
      <point x="356" y="-50"/>
      <point x="356" y="-80" type="curve" smooth="yes"/>
      <point x="356" y="-109"/>
      <point x="333" y="-130"/>
      <point x="294" y="-130" type="curve" smooth="yes"/>
      <point x="228" y="-130"/>
      <point x="179" y="-77"/>
      <point x="109" y="4" type="curve"/>
      <point x="34" y="-45" type="line"/>
      <point x="105" y="-158"/>
      <point x="197" y="-227"/>
      <point x="293" y="-227" type="curve" smooth="yes"/>
      <point x="384" y="-227"/>
      <point x="462" y="-169"/>
      <point x="462" y="-73" type="curve" smooth="yes"/>
      <point x="462" y="-47"/>
      <point x="454" y="-23"/>
      <point x="441" y="-4" type="curve"/>
      <point x="452" y="-2"/>
      <point x="463" y="1"/>
      <point x="476" y="5" type="curve"/>
      <point x="468" y="38"/>
      <point x="458" y="72"/>
      <point x="449" y="106" type="curve"/>
      <point x="407" y="92"/>
      <point x="355" y="86"/>
      <point x="309" y="86" type="curve" smooth="yes"/>
      <point x="236" y="86"/>
      <point x="192" y="115"/>
      <point x="192" y="166" type="curve" smooth="yes"/>
      <point x="192" y="189"/>
      <point x="203" y="208"/>
      <point x="222" y="222" type="curve"/>
      <point x="234" y="243"/>
      <point x="269" y="262"/>
      <point x="308" y="262" type="curve" smooth="yes"/>
      <point x="357" y="262"/>
      <point x="404" y="251"/>
      <point x="449" y="237" type="curve"/>
      <point x="458" y="270"/>
      <point x="468" y="305"/>
    </contour>
  </outline>
</glyph>
<glyph name="dv_HMatraUu" format="1">
  <advance width="556"/>
  <outline>
    <contour>
      <point x="476" y="338" type="curve"/>
      <point x="416" y="356"/>
      <point x="359" y="360"/>
      <point x="302" y="360" type="curve" smooth="yes"/>
      <point x="281" y="360"/>
      <point x="267" y="358"/>
      <point x="248" y="358" type="curve" smooth="yes"/>
      <point x="219" y="358"/>
      <point x="197" y="380"/>
      <point x="197" y="398" type="curve" smooth="yes"/>
      <point x="197" y="422"/>
      <point x="222" y="440"/>
      <point x="253" y="440" type="curve" smooth="yes"/>
      <point x="458" y="440" type="line"/>
      <point x="458" y="583" type="line"/>
      <point x="568" y="583" type="line"/>
      <point x="551" y="680" type="line"/>
      <point x="-11" y="680" type="line"/>
      <point x="-5" y="647"/>
      <point x="0" y="615"/>
      <point x="5" y="583" type="curve"/>
      <point x="327" y="583" type="line"/>
      <point x="327" y="537" type="line"/>
      <point x="243" y="537" type="line" smooth="yes"/>
      <point x="157" y="537"/>
      <point x="78" y="487"/>
      <point x="78" y="401" type="curve" smooth="yes"/>
      <point x="78" y="365"/>
      <point x="98" y="330"/>
      <point x="131" y="306" type="curve"/>
      <point x="86" y="272"/>
      <point x="62" y="224"/>
      <point x="62" y="170" type="curve" smooth="yes"/>
      <point x="62" y="108"/>
      <point x="88" y="58"/>
      <point x="136" y="26" type="curve"/>
      <point x="112" y="1"/>
      <point x="98" y="-32"/>
      <point x="98" y="-74" type="curve" smooth="yes"/>
      <point x="98" y="-171"/>
      <point x="178" y="-228"/>
      <point x="256" y="-228" type="curve" smooth="yes"/>
      <point x="335" y="-228" type="line"/>
      <point x="335" y="-131" type="line"/>
      <point x="266" y="-131" type="line" smooth="yes"/>
      <point x="226" y="-131"/>
      <point x="201" y="-107"/>
      <point x="201" y="-74" type="curve" smooth="yes"/>
      <point x="201" y="-44"/>
      <point x="224" y="-17"/>
      <point x="266" y="-17" type="curve" smooth="yes"/>
      <point x="333" y="-17"/>
      <point x="381" y="-70"/>
      <point x="452" y="-152" type="curve"/>
      <point x="526" y="-101" type="line"/>
      <point x="501" y="-63"/>
      <point x="473" y="-29"/>
      <point x="444" y="-3" type="curve"/>
      <point x="476" y="5" type="line"/>
      <point x="468" y="38"/>
      <point x="458" y="72"/>
      <point x="449" y="106" type="curve"/>
      <point x="407" y="92"/>
      <point x="355" y="86"/>
      <point x="309" y="86" type="curve" smooth="yes"/>
      <point x="236" y="86"/>
      <point x="192" y="122"/>
      <point x="192" y="173" type="curve" smooth="yes"/>
      <point x="192" y="227"/>
      <point x="238" y="262"/>
      <point x="308" y="262" type="curve" smooth="yes"/>
      <point x="357" y="262"/>
      <point x="404" y="251"/>
      <point x="449" y="237" type="curve"/>
      <point x="458" y="270"/>
      <point x="468" y="305"/>
    </contour>
  </outline>
</glyph>
<glyph name="dv_HMatraVocalicR" format="1">
  <advance width="556"/>
  <outline>
    <contour>
      <point x="476" y="338" type="curve"/>
      <point x="416" y="356"/>
      <point x="359" y="360"/>
      <point x="302" y="360" type="curve" smooth="yes"/>
      <point x="281" y="360"/>
      <point x="267" y="358"/>
      <point x="248" y="358" type="curve" smooth="yes"/>
      <point x="219" y="358"/>
      <point x="197" y="380"/>
      <point x="197" y="398" type="curve" smooth="yes"/>
      <point x="197" y="422"/>
      <point x="222" y="440"/>
      <point x="253" y="440" type="curve" smooth="yes"/>
      <point x="458" y="440" type="line"/>
      <point x="458" y="583" type="line"/>
      <point x="568" y="583" type="line"/>
      <point x="551" y="680" type="line"/>
      <point x="-11" y="680" type="line"/>
      <point x="-5" y="647"/>
      <point x="0" y="615"/>
      <point x="5" y="583" type="curve"/>
      <point x="327" y="583" type="line"/>
      <point x="327" y="537" type="line"/>
      <point x="243" y="537" type="line" smooth="yes"/>
      <point x="157" y="537"/>
      <point x="78" y="487"/>
      <point x="78" y="401" type="curve" smooth="yes"/>
      <point x="78" y="365"/>
      <point x="98" y="330"/>
      <point x="131" y="306" type="curve"/>
      <point x="86" y="271"/>
      <point x="62" y="225"/>
      <point x="62" y="170" type="curve" smooth="yes"/>
      <point x="62" y="92"/>
      <point x="107" y="23"/>
      <point x="185" y="2" type="curve"/>
      <point x="173" y="-17"/>
      <point x="164" y="-48"/>
      <point x="164" y="-74" type="curve" smooth="yes"/>
      <point x="164" y="-170"/>
      <point x="241" y="-227"/>
      <point x="323" y="-227" type="curve" smooth="yes"/>
      <point x="353" y="-227"/>
      <point x="387" y="-226"/>
      <point x="423" y="-213" type="curve"/>
      <point x="417" y="-181"/>
      <point x="410" y="-150"/>
      <point x="403" y="-118" type="curve"/>
      <point x="371" y="-129"/>
      <point x="348" y="-132"/>
      <point x="332" y="-132" type="curve" smooth="yes"/>
      <point x="298" y="-132"/>
      <point x="270" y="-105"/>
      <point x="270" y="-77" type="curve" smooth="yes"/>
      <point x="270" y="-33"/>
      <point x="302" y="-18"/>
      <point x="319" y="-18" type="curve" smooth="yes"/>
      <point x="377" y="-18"/>
      <point x="423" y="-11"/>
      <point x="476" y="5" type="curve"/>
      <point x="468" y="38"/>
      <point x="458" y="72"/>
      <point x="449" y="106" type="curve"/>
      <point x="407" y="92"/>
      <point x="355" y="86"/>
      <point x="309" y="86" type="curve" smooth="yes"/>
      <point x="236" y="86"/>
      <point x="192" y="121"/>
      <point x="192" y="172" type="curve" smooth="yes"/>
      <point x="192" y="226"/>
      <point x="235" y="262"/>
      <point x="308" y="262" type="curve" smooth="yes"/>
      <point x="357" y="262"/>
      <point x="404" y="251"/>
      <point x="449" y="237" type="curve"/>
      <point x="458" y="270"/>
      <point x="468" y="305"/>
    </contour>
  </outline>
</glyph>
<glyph name="dv_HNa" format="1">
  <advance width="833"/>
  <outline>
    <contour>
      <point x="603" y="0" type="line"/>
      <point x="727" y="-16" type="line"/>
      <point x="727" y="583" type="line"/>
      <point x="843" y="583" type="line"/>
      <point x="838" y="615"/>
      <point x="832" y="647"/>
      <point x="826" y="680" type="curve"/>
      <point x="-11" y="680" type="line"/>
      <point x="-5" y="647"/>
      <point x="0" y="615"/>
      <point x="5" y="583" type="curve"/>
      <point x="327" y="583" type="line"/>
      <point x="327" y="537" type="line"/>
      <point x="243" y="537" type="line" smooth="yes"/>
      <point x="157" y="537"/>
      <point x="78" y="487"/>
      <point x="78" y="401" type="curve" smooth="yes"/>
      <point x="78" y="365"/>
      <point x="98" y="330"/>
      <point x="131" y="306" type="curve"/>
      <point x="86" y="271"/>
      <point x="62" y="225"/>
      <point x="62" y="170" type="curve" smooth="yes"/>
      <point x="62" y="52"/>
      <point x="155" y="-18"/>
      <point x="314" y="-18" type="curve" smooth="yes"/>
      <point x="321" y="-18"/>
      <point x="330" y="-18"/>
      <point x="338" y="-17" type="curve"/>
      <point x="338" y="-61"/>
      <point x="382" y="-85"/>
      <point x="424" y="-85" type="curve" smooth="yes"/>
      <point x="495" y="-85"/>
      <point x="538" y="-38"/>
      <point x="538" y="-8" type="curve" smooth="yes"/>
      <point x="538" y="11"/>
      <point x="523" y="32"/>
      <point x="506" y="46" type="curve"/>
      <point x="603" y="164" type="line"/>
    </contour>
    <contour>
      <point x="285" y="360" type="line" smooth="yes"/>
      <point x="235" y="360"/>
      <point x="197" y="370"/>
      <point x="197" y="398" type="curve" smooth="yes"/>
      <point x="197" y="422"/>
      <point x="222" y="440"/>
      <point x="253" y="440" type="curve" smooth="yes"/>
      <point x="458" y="440" type="line"/>
      <point x="458" y="583" type="line"/>
      <point x="603" y="583" type="line"/>
      <point x="603" y="360" type="line"/>
    </contour>
    <contour>
      <point x="309" y="86" type="curve" smooth="yes"/>
      <point x="232" y="86"/>
      <point x="185" y="119"/>
      <point x="185" y="173" type="curve" smooth="yes"/>
      <point x="185" y="227"/>
      <point x="233" y="262"/>
      <point x="308" y="262" type="curve" smooth="yes"/>
      <point x="556" y="262" type="line"/>
      <point x="419" y="98" type="line"/>
      <point x="389" y="91"/>
      <point x="345" y="86"/>
    </contour>
  </outline>
</glyph>
<glyph name="dv_HRa" format="1">
  <advance width="556"/>
  <outline>
    <contour>
      <point x="476" y="338" type="curve"/>
      <point x="416" y="356"/>
      <point x="359" y="360"/>
      <point x="302" y="360" type="curve" smooth="yes"/>
      <point x="281" y="360"/>
      <point x="267" y="358"/>
      <point x="248" y="358" type="curve" smooth="yes"/>
      <point x="219" y="358"/>
      <point x="197" y="380"/>
      <point x="197" y="398" type="curve" smooth="yes"/>
      <point x="197" y="422"/>
      <point x="222" y="440"/>
      <point x="253" y="440" type="curve" smooth="yes"/>
      <point x="458" y="440" type="line"/>
      <point x="458" y="583" type="line"/>
      <point x="568" y="583" type="line"/>
      <point x="551" y="680" type="line"/>
      <point x="-11" y="680" type="line"/>
      <point x="-5" y="647"/>
      <point x="0" y="615"/>
      <point x="5" y="583" type="curve"/>
      <point x="327" y="583" type="line"/>
      <point x="327" y="537" type="line"/>
      <point x="243" y="537" type="line" smooth="yes"/>
      <point x="157" y="537"/>
      <point x="78" y="487"/>
      <point x="78" y="401" type="curve" smooth="yes"/>
      <point x="78" y="365"/>
      <point x="98" y="330"/>
      <point x="131" y="306" type="curve"/>
      <point x="86" y="271"/>
      <point x="62" y="225"/>
      <point x="62" y="170" type="curve" smooth="yes"/>
      <point x="62" y="51"/>
      <point x="154" y="-18"/>
      <point x="314" y="-18" type="curve" smooth="yes"/>
      <point x="373" y="-18"/>
      <point x="422" y="-11"/>
      <point x="476" y="5" type="curve"/>
      <point x="468" y="38"/>
      <point x="458" y="72"/>
      <point x="449" y="106" type="curve"/>
      <point x="407" y="93"/>
      <point x="365" y="86"/>
      <point x="325" y="86" type="curve" smooth="yes"/>
      <point x="237" y="86"/>
      <point x="185" y="112"/>
      <point x="185" y="173" type="curve" smooth="yes"/>
      <point x="185" y="227"/>
      <point x="237" y="258"/>
      <point x="305" y="262" type="curve"/>
      <point x="249" y="158" type="line"/>
      <point x="359" y="134" type="line"/>
      <point x="406" y="249" type="line"/>
      <point x="449" y="237" type="line"/>
      <point x="458" y="270"/>
      <point x="468" y="305"/>
    </contour>
  </outline>
</glyph>
<glyph name="dv_HVa" format="1">
  <advance width="1056"/>
  <outline>
    <contour>
      <point x="828" y="0" type="line"/>
      <point x="951" y="-16" type="line"/>
      <point x="951" y="583" type="line"/>
      <point x="1067" y="583" type="line"/>
      <point x="1051" y="680" type="line"/>
      <point x="-11" y="680" type="line"/>
      <point x="-5" y="647"/>
      <point x="0" y="615"/>
      <point x="5" y="583" type="curve"/>
      <point x="327" y="583" type="line"/>
      <point x="327" y="537" type="line"/>
      <point x="243" y="537" type="line" smooth="yes"/>
      <point x="157" y="537"/>
      <point x="78" y="487"/>
      <point x="78" y="401" type="curve" smooth="yes"/>
      <point x="78" y="365"/>
      <point x="98" y="330"/>
      <point x="131" y="306" type="curve"/>
      <point x="86" y="271"/>
      <point x="62" y="225"/>
      <point x="62" y="170" type="curve" smooth="yes"/>
      <point x="62" y="52"/>
      <point x="155" y="-18"/>
      <point x="314" y="-18" type="curve" smooth="yes"/>
      <point x="374" y="-18"/>
      <point x="423" y="-11"/>
      <point x="476" y="5" type="curve"/>
      <point x="468" y="38"/>
      <point x="458" y="72"/>
      <point x="449" y="106" type="curve"/>
      <point x="409" y="93"/>
      <point x="373" y="89"/>
      <point x="327" y="89" type="curve" smooth="yes"/>
      <point x="238" y="89"/>
      <point x="185" y="113"/>
      <point x="185" y="173" type="curve" smooth="yes"/>
      <point x="185" y="239"/>
      <point x="251" y="262"/>
      <point x="351" y="262" type="curve" smooth="yes"/>
      <point x="479" y="262" type="line"/>
      <point x="489" y="148"/>
      <point x="580" y="69"/>
      <point x="707" y="69" type="curve" smooth="yes"/>
      <point x="750" y="69"/>
      <point x="806" y="91"/>
      <point x="828" y="115" type="curve"/>
    </contour>
    <contour>
      <point x="248" y="358" type="curve" smooth="yes"/>
      <point x="219" y="358"/>
      <point x="197" y="380"/>
      <point x="197" y="398" type="curve" smooth="yes"/>
      <point x="197" y="422"/>
      <point x="222" y="440"/>
      <point x="253" y="440" type="curve" smooth="yes"/>
      <point x="458" y="440" type="line"/>
      <point x="458" y="583" type="line"/>
      <point x="828" y="583" type="line"/>
      <point x="828" y="455" type="line"/>
      <point x="806" y="479"/>
      <point x="750" y="500"/>
      <point x="707" y="500" type="curve" smooth="yes"/>
      <point x="599" y="500"/>
      <point x="520" y="443"/>
      <point x="490" y="360" type="curve"/>
      <point x="302" y="360" type="line" smooth="yes"/>
      <point x="281" y="360"/>
      <point x="267" y="358"/>
    </contour>
    <contour>
      <point x="596" y="284" type="curve" smooth="yes"/>
      <point x="596" y="351"/>
      <point x="653" y="398"/>
      <point x="712" y="398" type="curve" smooth="yes"/>
      <point x="770" y="398"/>
      <point x="807" y="365"/>
      <point x="828" y="333" type="curve"/>
      <point x="828" y="235" type="line"/>
      <point x="807" y="204"/>
      <point x="770" y="171"/>
      <point x="712" y="171" type="curve" smooth="yes"/>
      <point x="651" y="171"/>
      <point x="596" y="218"/>
    </contour>
  </outline>
</glyph>
<glyph name="dv_HYa" format="1">
  <advance width="1112"/>
  <outline>
    <contour>
      <point x="476" y="338" type="curve"/>
      <point x="416" y="356"/>
      <point x="359" y="360"/>
      <point x="302" y="360" type="curve" smooth="yes"/>
      <point x="281" y="360"/>
      <point x="267" y="358"/>
      <point x="248" y="358" type="curve" smooth="yes"/>
      <point x="219" y="358"/>
      <point x="197" y="375"/>
      <point x="197" y="398" type="curve" smooth="yes"/>
      <point x="197" y="422"/>
      <point x="221" y="440"/>
      <point x="253" y="440" type="curve" smooth="yes"/>
      <point x="531" y="440" type="line" smooth="yes"/>
      <point x="565" y="440"/>
      <point x="599" y="432"/>
      <point x="599" y="412" type="curve" smooth="yes"/>
      <point x="599" y="386"/>
      <point x="567" y="383"/>
      <point x="534" y="373" type="curve"/>
      <point x="513" y="347" type="line"/>
      <point x="513" y="240"/>
      <point x="628" y="145"/>
      <point x="752" y="145" type="curve" smooth="yes"/>
      <point x="815" y="145"/>
      <point x="854" y="159"/>
      <point x="884" y="178" type="curve"/>
      <point x="884" y="0" type="line"/>
      <point x="1007" y="-16" type="line"/>
      <point x="1007" y="583" type="line"/>
      <point x="1124" y="583" type="line"/>
      <point x="1118" y="615"/>
      <point x="1114" y="647"/>
      <point x="1108" y="680" type="curve"/>
      <point x="-11" y="680" type="line"/>
      <point x="-5" y="647"/>
      <point x="0" y="615"/>
      <point x="5" y="583" type="curve"/>
      <point x="327" y="583" type="line"/>
      <point x="327" y="537" type="line"/>
      <point x="243" y="537" type="line" smooth="yes"/>
      <point x="157" y="537"/>
      <point x="78" y="487"/>
      <point x="78" y="401" type="curve" smooth="yes"/>
      <point x="78" y="365"/>
      <point x="98" y="330"/>
      <point x="131" y="306" type="curve"/>
      <point x="86" y="271"/>
      <point x="62" y="225"/>
      <point x="62" y="170" type="curve" smooth="yes"/>
      <point x="62" y="52"/>
      <point x="155" y="-18"/>
      <point x="314" y="-18" type="curve" smooth="yes"/>
      <point x="373" y="-18"/>
      <point x="422" y="-11"/>
      <point x="476" y="5" type="curve"/>
      <point x="468" y="38"/>
      <point x="458" y="72"/>
      <point x="449" y="106" type="curve"/>
      <point x="406" y="93"/>
      <point x="365" y="88"/>
      <point x="318" y="88" type="curve" smooth="yes"/>
      <point x="235" y="88"/>
      <point x="185" y="116"/>
      <point x="185" y="173" type="curve" smooth="yes"/>
      <point x="185" y="228"/>
      <point x="236" y="260"/>
      <point x="314" y="260" type="curve" smooth="yes"/>
      <point x="360" y="260"/>
      <point x="406" y="251"/>
      <point x="449" y="237" type="curve"/>
      <point x="458" y="270"/>
      <point x="468" y="305"/>
    </contour>
    <contour>
      <point x="884" y="583" type="line"/>
      <point x="884" y="352" type="line"/>
      <point x="877" y="287"/>
      <point x="823" y="247"/>
      <point x="756" y="247" type="curve" smooth="yes"/>
      <point x="686" y="247"/>
      <point x="647" y="290"/>
      <point x="629" y="324" type="curve"/>
      <point x="676" y="351"/>
      <point x="708" y="374"/>
      <point x="708" y="433" type="curve" smooth="yes"/>
      <point x="708" y="481"/>
      <point x="663" y="533"/>
      <point x="573" y="533" type="curve" smooth="yes"/>
      <point x="458" y="533" type="line"/>
      <point x="458" y="583" type="line"/>
    </contour>
  </outline>
</glyph>
<glyph name="dv_H.half" format="1">
  <advance width="556"/>
  <outline>
    <contour>
      <point x="618" y="360" type="line"/>
      <point x="302" y="360" type="line" smooth="yes"/>
      <point x="281" y="360"/>
      <point x="267" y="358"/>
      <point x="248" y="358" type="curve" smooth="yes"/>
      <point x="219" y="358"/>
      <point x="197" y="375"/>
      <point x="197" y="398" type="curve" smooth="yes"/>
      <point x="197" y="422"/>
      <point x="221" y="440"/>
      <point x="253" y="440" type="curve" smooth="yes"/>
      <point x="458" y="440" type="line"/>
      <point x="458" y="583" type="line"/>
      <point x="568" y="583" type="line"/>
      <point x="551" y="680" type="line"/>
      <point x="-11" y="680" type="line"/>
      <point x="-5" y="647"/>
      <point x="0" y="615"/>
      <point x="5" y="583" type="curve"/>
      <point x="327" y="583" type="line"/>
      <point x="327" y="537" type="line"/>
      <point x="243" y="537" type="line" smooth="yes"/>
      <point x="157" y="537"/>
      <point x="78" y="487"/>
      <point x="78" y="401" type="curve" smooth="yes"/>
      <point x="78" y="365"/>
      <point x="98" y="330"/>
      <point x="131" y="306" type="curve"/>
      <point x="86" y="271"/>
      <point x="62" y="225"/>
      <point x="62" y="170" type="curve" smooth="yes"/>
      <point x="62" y="52"/>
      <point x="155" y="-18"/>
      <point x="314" y="-18" type="curve" smooth="yes"/>
      <point x="373" y="-18"/>
      <point x="422" y="-11"/>
      <point x="476" y="5" type="curve"/>
      <point x="468" y="38"/>
      <point x="458" y="72"/>
      <point x="449" y="106" type="curve"/>
      <point x="407" y="92"/>
      <point x="355" y="86"/>
      <point x="309" y="86" type="curve" smooth="yes"/>
      <point x="232" y="86"/>
      <point x="185" y="119"/>
      <point x="185" y="173" type="curve" smooth="yes"/>
      <point x="185" y="227"/>
      <point x="233" y="262"/>
      <point x="308" y="262" type="curve" smooth="yes"/>
      <point x="618" y="262" type="line"/>
    </contour>
  </outline>
</glyph>
<glyph name="dv_JhHa" format="1">
  <advance width="1125"/>
  <outline>
    <contour>
      <point x="1044" y="338" type="curve"/>
      <point x="984" y="356"/>
      <point x="927" y="360"/>
      <point x="870" y="360" type="curve" smooth="yes"/>
      <point x="849" y="360"/>
      <point x="835" y="358"/>
      <point x="816" y="358" type="curve" smooth="yes"/>
      <point x="787" y="358"/>
      <point x="765" y="380"/>
      <point x="765" y="398" type="curve" smooth="yes"/>
      <point x="765" y="422"/>
      <point x="790" y="440"/>
      <point x="821" y="440" type="curve" smooth="yes"/>
      <point x="1026" y="440" type="line"/>
      <point x="1026" y="583" type="line"/>
      <point x="1136" y="583" type="line"/>
      <point x="1119" y="680" type="line"/>
      <point x="-11" y="680" type="line"/>
      <point x="-5" y="647"/>
      <point x="0" y="615"/>
      <point x="5" y="583" type="curve"/>
      <point x="331" y="583" type="line"/>
      <point x="331" y="521" type="line"/>
      <point x="218" y="521" type="line" smooth="yes"/>
      <point x="123" y="521"/>
      <point x="50" y="468"/>
      <point x="50" y="372" type="curve" smooth="yes"/>
      <point x="50" y="281"/>
      <point x="135" y="223"/>
      <point x="219" y="223" type="curve" smooth="yes"/>
      <point x="312" y="223" type="line" smooth="yes"/>
      <point x="362" y="223"/>
      <point x="386" y="194"/>
      <point x="386" y="157" type="curve" smooth="yes"/>
      <point x="386" y="119"/>
      <point x="354" y="84"/>
      <point x="279" y="84" type="curve" smooth="yes"/>
      <point x="258" y="84"/>
      <point x="239" y="86"/>
      <point x="221" y="89" type="curve"/>
      <point x="205" y="132"/>
      <point x="161" y="168"/>
      <point x="110" y="168" type="curve" smooth="yes"/>
      <point x="75" y="168"/>
      <point x="52" y="146"/>
      <point x="52" y="113" type="curve" smooth="yes"/>
      <point x="52" y="55"/>
      <point x="97" y="17"/>
      <point x="139" y="-2" type="curve"/>
      <point x="265" y="-169" type="line"/>
      <point x="292" y="-149"/>
      <point x="319" y="-130"/>
      <point x="346" y="-111" type="curve"/>
      <point x="331" y="-92"/>
      <point x="308" y="-65"/>
      <point x="276" y="-24" type="curve" smooth="yes"/>
      <point x="269" y="-15" type="line"/>
      <point x="289" y="-13"/>
      <point x="310" y="-14"/>
      <point x="329" y="-11" type="curve" smooth="yes"/>
      <point x="445" y="4"/>
      <point x="511" y="77"/>
      <point x="511" y="157" type="curve" smooth="yes"/>
      <point x="511" y="164"/>
      <point x="509" y="171"/>
      <point x="508" y="178" type="curve"/>
      <point x="630" y="178" type="line"/>
      <point x="630" y="170" type="line" smooth="yes"/>
      <point x="630" y="51"/>
      <point x="722" y="-18"/>
      <point x="882" y="-18" type="curve" smooth="yes"/>
      <point x="941" y="-18"/>
      <point x="990" y="-11"/>
      <point x="1044" y="5" type="curve"/>
      <point x="1036" y="38"/>
      <point x="1026" y="72"/>
      <point x="1017" y="106" type="curve"/>
      <point x="975" y="93"/>
      <point x="933" y="86"/>
      <point x="893" y="86" type="curve" smooth="yes"/>
      <point x="811" y="86"/>
      <point x="755" y="109"/>
      <point x="755" y="165" type="curve" smooth="yes"/>
      <point x="755" y="215"/>
      <point x="792" y="262"/>
      <point x="876" y="262" type="curve" smooth="yes"/>
      <point x="925" y="262"/>
      <point x="972" y="251"/>
      <point x="1017" y="237" type="curve"/>
      <point x="1026" y="270"/>
      <point x="1036" y="305"/>
    </contour>
    <contour>
      <point x="471" y="268" type="line"/>
      <point x="435" y="306"/>
      <point x="376" y="324"/>
      <point x="304" y="324" type="curve" smooth="yes"/>
      <point x="223" y="324" type="line" smooth="yes"/>
      <point x="190" y="324"/>
      <point x="166" y="346"/>
      <point x="166" y="372" type="curve" smooth="yes"/>
      <point x="166" y="409"/>
      <point x="202" y="419"/>
      <point x="250" y="419" type="curve" smooth="yes"/>
      <point x="452" y="419" type="line"/>
      <point x="452" y="583" type="line"/>
      <point x="895" y="583" type="line"/>
      <point x="895" y="537" type="line"/>
      <point x="811" y="537" type="line" smooth="yes"/>
      <point x="725" y="537"/>
      <point x="647" y="485"/>
      <point x="647" y="402" type="curve" smooth="yes"/>
      <point x="647" y="367"/>
      <point x="665" y="331"/>
      <point x="699" y="306" type="curve"/>
      <point x="684" y="294"/>
      <point x="671" y="282"/>
      <point x="661" y="268" type="curve"/>
    </contour>
  </outline>
</glyph>
<glyph name="dv_KHa" format="1">
  <advance width="1176"/>
  <outline>
    <contour>
      <point x="1096" y="338" type="curve"/>
      <point x="1036" y="356"/>
      <point x="979" y="360"/>
      <point x="922" y="360" type="curve" smooth="yes"/>
      <point x="901" y="360"/>
      <point x="887" y="358"/>
      <point x="868" y="358" type="curve" smooth="yes"/>
      <point x="839" y="358"/>
      <point x="817" y="375"/>
      <point x="817" y="398" type="curve" smooth="yes"/>
      <point x="817" y="422"/>
      <point x="841" y="440"/>
      <point x="873" y="440" type="curve" smooth="yes"/>
      <point x="1078" y="440" type="line"/>
      <point x="1078" y="583" type="line"/>
      <point x="1188" y="583" type="line"/>
      <point x="1171" y="680" type="line"/>
      <point x="-11" y="680" type="line"/>
      <point x="-5" y="647"/>
      <point x="0" y="615"/>
      <point x="5" y="583" type="curve"/>
      <point x="394" y="583" type="line"/>
      <point x="394" y="460" type="line"/>
      <point x="366" y="482"/>
      <point x="316" y="501"/>
      <point x="273" y="501" type="curve" smooth="yes"/>
      <point x="135" y="501"/>
      <point x="43" y="407"/>
      <point x="43" y="284" type="curve" smooth="yes"/>
      <point x="43" y="160"/>
      <point x="138" y="69"/>
      <point x="273" y="69" type="curve" smooth="yes"/>
      <point x="316" y="69"/>
      <point x="366" y="88"/>
      <point x="394" y="110" type="curve"/>
      <point x="394" y="0" type="line"/>
      <point x="517" y="-16" type="line"/>
      <point x="517" y="331" type="line"/>
      <point x="538" y="369"/>
      <point x="589" y="399"/>
      <point x="640" y="399" type="curve" smooth="yes"/>
      <point x="699" y="399" type="line"/>
      <point x="701" y="367"/>
      <point x="717" y="328"/>
      <point x="751" y="306" type="curve"/>
      <point x="706" y="271"/>
      <point x="682" y="225"/>
      <point x="682" y="170" type="curve" smooth="yes"/>
      <point x="682" y="52"/>
      <point x="775" y="-18"/>
      <point x="934" y="-18" type="curve" smooth="yes"/>
      <point x="993" y="-18"/>
      <point x="1042" y="-11"/>
      <point x="1096" y="5" type="curve"/>
      <point x="1088" y="38"/>
      <point x="1078" y="72"/>
      <point x="1069" y="106" type="curve"/>
      <point x="1026" y="93"/>
      <point x="985" y="88"/>
      <point x="938" y="88" type="curve" smooth="yes"/>
      <point x="855" y="88"/>
      <point x="805" y="116"/>
      <point x="805" y="173" type="curve" smooth="yes"/>
      <point x="805" y="223"/>
      <point x="853" y="262"/>
      <point x="928" y="262" type="curve" smooth="yes"/>
      <point x="977" y="262"/>
      <point x="1024" y="251"/>
      <point x="1069" y="237" type="curve"/>
      <point x="1078" y="270"/>
      <point x="1088" y="305"/>
    </contour>
    <contour>
      <point x="162" y="285" type="curve" smooth="yes"/>
      <point x="162" y="352"/>
      <point x="212" y="399"/>
      <point x="271" y="399" type="curve" smooth="yes"/>
      <point x="345" y="399"/>
      <point x="373" y="361"/>
      <point x="394" y="330" type="curve"/>
      <point x="394" y="240" type="line"/>
      <point x="372" y="208"/>
      <point x="345" y="171"/>
      <point x="271" y="171" type="curve" smooth="yes"/>
      <point x="211" y="171"/>
      <point x="162" y="219"/>
    </contour>
    <contour>
      <point x="517" y="455" type="curve"/>
      <point x="517" y="583" type="line"/>
      <point x="947" y="583" type="line"/>
      <point x="947" y="537" type="line"/>
      <point x="863" y="537" type="line" smooth="yes"/>
      <point x="816" y="537"/>
      <point x="772" y="522"/>
      <point x="741" y="495" type="curve"/>
      <point x="638" y="495" type="line" smooth="yes"/>
      <point x="578" y="495"/>
      <point x="543" y="476"/>
    </contour>
  </outline>
</glyph>
<glyph name="dv_LHYa" format="1">
  <advance width="1641"/>
  <outline>
    <contour>
      <point x="1002" y="338" type="curve"/>
      <point x="942" y="356"/>
      <point x="885" y="360"/>
      <point x="828" y="360" type="curve" smooth="yes"/>
      <point x="807" y="360"/>
      <point x="793" y="358"/>
      <point x="774" y="358" type="curve" smooth="yes"/>
      <point x="745" y="358"/>
      <point x="723" y="375"/>
      <point x="723" y="398" type="curve" smooth="yes"/>
      <point x="723" y="422"/>
      <point x="747" y="440"/>
      <point x="779" y="440" type="curve" smooth="yes"/>
      <point x="1059" y="440" type="line" smooth="yes"/>
      <point x="1094" y="440"/>
      <point x="1128" y="432"/>
      <point x="1128" y="412" type="curve" smooth="yes"/>
      <point x="1128" y="386"/>
      <point x="1096" y="383"/>
      <point x="1063" y="373" type="curve"/>
      <point x="1041" y="347" type="line"/>
      <point x="1041" y="240"/>
      <point x="1158" y="145"/>
      <point x="1281" y="145" type="curve" smooth="yes"/>
      <point x="1344" y="145"/>
      <point x="1382" y="159"/>
      <point x="1413" y="178" type="curve"/>
      <point x="1413" y="0" type="line"/>
      <point x="1536" y="-16" type="line"/>
      <point x="1536" y="583" type="line"/>
      <point x="1653" y="583" type="line"/>
      <point x="1647" y="615"/>
      <point x="1641" y="647"/>
      <point x="1636" y="680" type="curve"/>
      <point x="-11" y="680" type="line"/>
      <point x="-5" y="647"/>
      <point x="0" y="615"/>
      <point x="5" y="583" type="curve"/>
      <point x="853" y="583" type="line"/>
      <point x="853" y="537" type="line"/>
      <point x="769" y="537" type="line" smooth="yes"/>
      <point x="712" y="537"/>
      <point x="661" y="515"/>
      <point x="631" y="477" type="curve"/>
      <point x="611" y="488"/>
      <point x="578" y="497"/>
      <point x="550" y="497" type="curve" smooth="yes"/>
      <point x="494" y="497"/>
      <point x="441" y="476"/>
      <point x="408" y="437" type="curve"/>
      <point x="373" y="474"/>
      <point x="318" y="497"/>
      <point x="260" y="497" type="curve" smooth="yes"/>
      <point x="152" y="497"/>
      <point x="60" y="411"/>
      <point x="60" y="317" type="curve" smooth="yes"/>
      <point x="60" y="212"/>
      <point x="106" y="125"/>
      <point x="183" y="-22" type="curve"/>
      <point x="281" y="10" type="line"/>
      <point x="202" y="170"/>
      <point x="171" y="236"/>
      <point x="171" y="309" type="curve" smooth="yes"/>
      <point x="171" y="350"/>
      <point x="209" y="393"/>
      <point x="260" y="393" type="curve" smooth="yes"/>
      <point x="328" y="393"/>
      <point x="354" y="346"/>
      <point x="354" y="277" type="curve" smooth="yes"/>
      <point x="354" y="152" type="line"/>
      <point x="392" y="148"/>
      <point x="429" y="142"/>
      <point x="466" y="138" type="curve"/>
      <point x="466" y="277" type="line" smooth="yes"/>
      <point x="466" y="341"/>
      <point x="504" y="391"/>
      <point x="550" y="391" type="curve" smooth="yes"/>
      <point x="581" y="391"/>
      <point x="595" y="377"/>
      <point x="614" y="356" type="curve"/>
      <point x="623" y="336"/>
      <point x="637" y="320"/>
      <point x="657" y="306" type="curve"/>
      <point x="612" y="271"/>
      <point x="588" y="225"/>
      <point x="588" y="170" type="curve" smooth="yes"/>
      <point x="588" y="52"/>
      <point x="679" y="-18"/>
      <point x="840" y="-18" type="curve" smooth="yes"/>
      <point x="899" y="-18"/>
      <point x="951" y="-10"/>
      <point x="1002" y="5" type="curve"/>
      <point x="994" y="38"/>
      <point x="984" y="72"/>
      <point x="975" y="106" type="curve"/>
      <point x="932" y="93"/>
      <point x="891" y="88"/>
      <point x="844" y="88" type="curve" smooth="yes"/>
      <point x="761" y="88"/>
      <point x="711" y="116"/>
      <point x="711" y="173" type="curve" smooth="yes"/>
      <point x="711" y="228"/>
      <point x="762" y="260"/>
      <point x="840" y="260" type="curve" smooth="yes"/>
      <point x="886" y="260"/>
      <point x="932" y="251"/>
      <point x="975" y="237" type="curve"/>
      <point x="984" y="270"/>
      <point x="994" y="305"/>
    </contour>
    <contour>
      <point x="1413" y="583" type="line"/>
      <point x="1413" y="352" type="line"/>
      <point x="1406" y="287"/>
      <point x="1352" y="247"/>
      <point x="1284" y="247" type="curve" smooth="yes"/>
      <point x="1214" y="247"/>
      <point x="1175" y="290"/>
      <point x="1157" y="324" type="curve"/>
      <point x="1205" y="351"/>
      <point x="1238" y="374"/>
      <point x="1238" y="433" type="curve" smooth="yes"/>
      <point x="1238" y="481"/>
      <point x="1192" y="533"/>
      <point x="1103" y="533" type="curve" smooth="yes"/>
      <point x="984" y="533" type="line"/>
      <point x="984" y="583" type="line"/>
    </contour>
  </outline>
</glyph>
<glyph name="dv_LHa" format="1">
  <advance width="1082"/>
  <outline>
    <contour>
      <point x="1002" y="338" type="curve"/>
      <point x="942" y="356"/>
      <point x="885" y="360"/>
      <point x="828" y="360" type="curve" smooth="yes"/>
      <point x="807" y="360"/>
      <point x="793" y="358"/>
      <point x="774" y="358" type="curve" smooth="yes"/>
      <point x="744" y="358"/>
      <point x="723" y="375"/>
      <point x="723" y="398" type="curve" smooth="yes"/>
      <point x="723" y="422"/>
      <point x="746" y="440"/>
      <point x="778" y="440" type="curve" smooth="yes"/>
      <point x="984" y="440" type="line"/>
      <point x="984" y="583" type="line"/>
      <point x="1093" y="583" type="line"/>
      <point x="1088" y="615"/>
      <point x="1083" y="647"/>
      <point x="1077" y="680" type="curve"/>
      <point x="-11" y="680" type="line"/>
      <point x="-5" y="647"/>
      <point x="0" y="615"/>
      <point x="5" y="583" type="curve"/>
      <point x="852" y="583" type="line"/>
      <point x="852" y="537" type="line"/>
      <point x="768" y="537" type="line" smooth="yes"/>
      <point x="710" y="537"/>
      <point x="657" y="514"/>
      <point x="628" y="473" type="curve"/>
      <point x="603" y="487"/>
      <point x="574" y="496"/>
      <point x="542" y="496" type="curve" smooth="yes"/>
      <point x="487" y="496"/>
      <point x="441" y="476"/>
      <point x="408" y="437" type="curve"/>
      <point x="373" y="474"/>
      <point x="318" y="497"/>
      <point x="260" y="497" type="curve" smooth="yes"/>
      <point x="136" y="497"/>
      <point x="60" y="411"/>
      <point x="60" y="317" type="curve" smooth="yes"/>
      <point x="60" y="212"/>
      <point x="106" y="125"/>
      <point x="183" y="-22" type="curve"/>
      <point x="281" y="10" type="line"/>
      <point x="202" y="170"/>
      <point x="171" y="236"/>
      <point x="171" y="309" type="curve" smooth="yes"/>
      <point x="171" y="350"/>
      <point x="209" y="393"/>
      <point x="260" y="393" type="curve" smooth="yes"/>
      <point x="341" y="393"/>
      <point x="354" y="329"/>
      <point x="354" y="244" type="curve" smooth="yes"/>
      <point x="354" y="152" type="line"/>
      <point x="392" y="148"/>
      <point x="429" y="142"/>
      <point x="466" y="138" type="curve"/>
      <point x="466" y="277" type="line" smooth="yes"/>
      <point x="466" y="343"/>
      <point x="489" y="393"/>
      <point x="544" y="393" type="curve" smooth="yes"/>
      <point x="577" y="393"/>
      <point x="603" y="371"/>
      <point x="614" y="357" type="curve"/>
      <point x="621" y="337"/>
      <point x="637" y="320"/>
      <point x="657" y="306" type="curve"/>
      <point x="612" y="271"/>
      <point x="588" y="225"/>
      <point x="588" y="170" type="curve" smooth="yes"/>
      <point x="588" y="50"/>
      <point x="682" y="-18"/>
      <point x="839" y="-18" type="curve" smooth="yes"/>
      <point x="899" y="-18"/>
      <point x="944" y="-11"/>
      <point x="1002" y="5" type="curve"/>
      <point x="993" y="38"/>
      <point x="983" y="72"/>
      <point x="975" y="106" type="curve"/>
      <point x="932" y="93"/>
      <point x="890" y="88"/>
      <point x="843" y="88" type="curve" smooth="yes"/>
      <point x="759" y="88"/>
      <point x="711" y="116"/>
      <point x="711" y="173" type="curve" smooth="yes"/>
      <point x="711" y="223"/>
      <point x="758" y="262"/>
      <point x="833" y="262" type="curve" smooth="yes"/>
      <point x="882" y="262"/>
      <point x="929" y="251"/>
      <point x="975" y="237" type="curve"/>
      <point x="983" y="270"/>
      <point x="993" y="305"/>
    </contour>
  </outline>
</glyph>
<glyph name="dv_MHa" format="1">
  <advance width="901"/>
  <outline>
    <contour>
      <point x="822" y="338" type="line"/>
      <point x="762" y="356"/>
      <point x="705" y="360"/>
      <point x="647" y="360" type="curve" smooth="yes"/>
      <point x="627" y="360"/>
      <point x="612" y="358"/>
      <point x="594" y="358" type="curve" smooth="yes"/>
      <point x="562" y="358"/>
      <point x="542" y="383"/>
      <point x="542" y="398" type="curve" smooth="yes"/>
      <point x="542" y="421"/>
      <point x="566" y="440"/>
      <point x="598" y="440" type="curve" smooth="yes"/>
      <point x="803" y="440" type="line"/>
      <point x="803" y="583" type="line"/>
      <point x="913" y="583" type="line"/>
      <point x="907" y="615"/>
      <point x="902" y="647"/>
      <point x="897" y="680" type="curve"/>
      <point x="-11" y="680" type="line"/>
      <point x="-5" y="647"/>
      <point x="0" y="615"/>
      <point x="5" y="583" type="curve"/>
      <point x="114" y="583" type="line"/>
      <point x="114" y="322" type="line"/>
      <point x="78" y="325"/>
      <point x="44" y="297"/>
      <point x="44" y="269" type="curve" smooth="yes"/>
      <point x="44" y="201"/>
      <point x="115" y="149"/>
      <point x="182" y="149" type="curve" smooth="yes"/>
      <point x="201" y="149"/>
      <point x="234" y="170"/>
      <point x="234" y="227" type="curve"/>
      <point x="419" y="227" type="line"/>
      <point x="411" y="209"/>
      <point x="407" y="190"/>
      <point x="407" y="170" type="curve" smooth="yes"/>
      <point x="407" y="53"/>
      <point x="497" y="-18"/>
      <point x="659" y="-18" type="curve" smooth="yes"/>
      <point x="720" y="-18"/>
      <point x="766" y="-11"/>
      <point x="822" y="5" type="curve"/>
      <point x="794" y="106" type="line"/>
      <point x="753" y="93"/>
      <point x="710" y="86"/>
      <point x="671" y="86" type="curve" smooth="yes"/>
      <point x="586" y="86"/>
      <point x="533" y="120"/>
      <point x="533" y="167" type="curve" smooth="yes"/>
      <point x="533" y="216"/>
      <point x="568" y="262"/>
      <point x="653" y="262" type="curve" smooth="yes"/>
      <point x="702" y="262"/>
      <point x="749" y="251"/>
      <point x="794" y="237" type="curve"/>
    </contour>
    <contour>
      <point x="233" y="322" type="curve"/>
      <point x="233" y="583" type="line"/>
      <point x="672" y="583" type="line"/>
      <point x="672" y="537" type="line"/>
      <point x="588" y="537" type="line" smooth="yes"/>
      <point x="502" y="537"/>
      <point x="423" y="487"/>
      <point x="423" y="401" type="curve" smooth="yes"/>
      <point x="423" y="371"/>
      <point x="435" y="345"/>
      <point x="459" y="323" type="curve"/>
      <point x="384" y="323"/>
      <point x="308" y="322"/>
    </contour>
  </outline>
</glyph>
<glyph name="dv_NHYa" format="1">
  <advance width="1419"/>
  <outline>
    <contour>
      <point x="783" y="338" type="curve"/>
      <point x="723" y="356"/>
      <point x="666" y="360"/>
      <point x="609" y="360" type="curve" smooth="yes"/>
      <point x="588" y="360"/>
      <point x="574" y="358"/>
      <point x="555" y="358" type="curve" smooth="yes"/>
      <point x="526" y="358"/>
      <point x="504" y="375"/>
      <point x="504" y="398" type="curve" smooth="yes"/>
      <point x="504" y="422"/>
      <point x="528" y="440"/>
      <point x="560" y="440" type="curve" smooth="yes"/>
      <point x="836" y="440" type="line" smooth="yes"/>
      <point x="872" y="440"/>
      <point x="906" y="432"/>
      <point x="906" y="412" type="curve" smooth="yes"/>
      <point x="906" y="386"/>
      <point x="874" y="383"/>
      <point x="841" y="373" type="curve"/>
      <point x="818" y="347" type="line"/>
      <point x="818" y="241"/>
      <point x="938" y="145"/>
      <point x="1059" y="145" type="curve" smooth="yes"/>
      <point x="1122" y="145"/>
      <point x="1160" y="159"/>
      <point x="1191" y="178" type="curve"/>
      <point x="1191" y="0" type="line"/>
      <point x="1314" y="-16" type="line"/>
      <point x="1314" y="583" type="line"/>
      <point x="1431" y="583" type="line"/>
      <point x="1414" y="680" type="line"/>
      <point x="-11" y="680" type="line"/>
      <point x="-5" y="647"/>
      <point x="0" y="615"/>
      <point x="5" y="583" type="curve"/>
      <point x="634" y="583" type="line"/>
      <point x="634" y="537" type="line"/>
      <point x="562" y="537" type="line" smooth="yes"/>
      <point x="469" y="537"/>
      <point x="385" y="492"/>
      <point x="385" y="401" type="curve" smooth="yes"/>
      <point x="385" y="394"/>
      <point x="386" y="387"/>
      <point x="388" y="381" type="curve"/>
      <point x="95" y="381" type="line" smooth="yes"/>
      <point x="56" y="381"/>
      <point x="32" y="363"/>
      <point x="32" y="329" type="curve" smooth="yes"/>
      <point x="32" y="263"/>
      <point x="108" y="207"/>
      <point x="166" y="207" type="curve" smooth="yes"/>
      <point x="192" y="207"/>
      <point x="211" y="244"/>
      <point x="211" y="285" type="curve"/>
      <point x="409" y="285" type="line"/>
      <point x="416" y="284" type="line"/>
      <point x="386" y="253"/>
      <point x="369" y="215"/>
      <point x="369" y="170" type="curve" smooth="yes"/>
      <point x="369" y="51"/>
      <point x="463" y="-18"/>
      <point x="621" y="-18" type="curve" smooth="yes"/>
      <point x="680" y="-18"/>
      <point x="729" y="-11"/>
      <point x="783" y="5" type="curve"/>
      <point x="775" y="38"/>
      <point x="765" y="72"/>
      <point x="756" y="106" type="curve"/>
      <point x="713" y="93"/>
      <point x="672" y="88"/>
      <point x="625" y="88" type="curve" smooth="yes"/>
      <point x="542" y="88"/>
      <point x="492" y="116"/>
      <point x="492" y="173" type="curve" smooth="yes"/>
      <point x="492" y="227"/>
      <point x="540" y="262"/>
      <point x="615" y="262" type="curve" smooth="yes"/>
      <point x="664" y="262"/>
      <point x="711" y="251"/>
      <point x="756" y="237" type="curve"/>
      <point x="765" y="270"/>
      <point x="775" y="305"/>
    </contour>
    <contour>
      <point x="1191" y="583" type="line"/>
      <point x="1191" y="352" type="line"/>
      <point x="1185" y="287"/>
      <point x="1129" y="247"/>
      <point x="1063" y="247" type="curve" smooth="yes"/>
      <point x="992" y="247"/>
      <point x="953" y="290"/>
      <point x="936" y="324" type="curve"/>
      <point x="983" y="351"/>
      <point x="1015" y="374"/>
      <point x="1015" y="433" type="curve" smooth="yes"/>
      <point x="1015" y="481"/>
      <point x="971" y="533"/>
      <point x="880" y="533" type="curve" smooth="yes"/>
      <point x="765" y="533" type="line"/>
      <point x="765" y="583" type="line"/>
    </contour>
  </outline>
</glyph>
<glyph name="dv_NHa" format="1">
  <advance width="846"/>
  <outline>
    <contour>
      <point x="766" y="338" type="line"/>
      <point x="706" y="356"/>
      <point x="649" y="360"/>
      <point x="592" y="360" type="curve" smooth="yes"/>
      <point x="571" y="360"/>
      <point x="557" y="358"/>
      <point x="538" y="358" type="curve" smooth="yes"/>
      <point x="507" y="358"/>
      <point x="487" y="381"/>
      <point x="487" y="398" type="curve" smooth="yes"/>
      <point x="487" y="422"/>
      <point x="512" y="440"/>
      <point x="543" y="440" type="curve" smooth="yes"/>
      <point x="748" y="440" type="line"/>
      <point x="748" y="583" type="line"/>
      <point x="858" y="583" type="line"/>
      <point x="841" y="680" type="line"/>
      <point x="-11" y="680" type="line"/>
      <point x="-5" y="647"/>
      <point x="0" y="615"/>
      <point x="5" y="583" type="curve"/>
      <point x="616" y="583" type="line"/>
      <point x="616" y="537" type="line"/>
      <point x="532" y="537" type="line" smooth="yes"/>
      <point x="447" y="537"/>
      <point x="368" y="487"/>
      <point x="368" y="401" type="curve" smooth="yes"/>
      <point x="368" y="394"/>
      <point x="368" y="387"/>
      <point x="370" y="381" type="curve"/>
      <point x="95" y="381" type="line" smooth="yes"/>
      <point x="56" y="381"/>
      <point x="32" y="363"/>
      <point x="32" y="329" type="curve" smooth="yes"/>
      <point x="32" y="263"/>
      <point x="108" y="207"/>
      <point x="166" y="207" type="curve" smooth="yes"/>
      <point x="192" y="207"/>
      <point x="211" y="240"/>
      <point x="211" y="285" type="curve"/>
      <point x="399" y="285" type="line"/>
      <point x="368" y="254"/>
      <point x="352" y="215"/>
      <point x="352" y="170" type="curve" smooth="yes"/>
      <point x="352" y="50"/>
      <point x="444" y="-18"/>
      <point x="603" y="-18" type="curve" smooth="yes"/>
      <point x="662" y="-18"/>
      <point x="711" y="-11"/>
      <point x="766" y="5" type="curve"/>
      <point x="739" y="106" type="line"/>
      <point x="698" y="93"/>
      <point x="655" y="86"/>
      <point x="615" y="86" type="curve" smooth="yes"/>
      <point x="523" y="86"/>
      <point x="477" y="119"/>
      <point x="477" y="175" type="curve" smooth="yes"/>
      <point x="477" y="225"/>
      <point x="518" y="262"/>
      <point x="597" y="262" type="curve" smooth="yes"/>
      <point x="647" y="262"/>
      <point x="694" y="251"/>
      <point x="739" y="237" type="curve"/>
    </contour>
  </outline>
</glyph>
<glyph name="dv_NyHa" format="1">
  <advance width="1018"/>
  <outline>
    <contour>
      <point x="224" y="34" type="curve" smooth="yes"/>
      <point x="335" y="34"/>
      <point x="423" y="89"/>
      <point x="444" y="201" type="curve"/>
      <point x="530" y="201" type="line"/>
      <point x="526" y="192"/>
      <point x="524" y="181"/>
      <point x="524" y="170" type="curve" smooth="yes"/>
      <point x="524" y="50"/>
      <point x="617" y="-18"/>
      <point x="775" y="-18" type="curve" smooth="yes"/>
      <point x="835" y="-18"/>
      <point x="880" y="-11"/>
      <point x="938" y="5" type="curve"/>
      <point x="929" y="38"/>
      <point x="919" y="72"/>
      <point x="911" y="106" type="curve"/>
      <point x="869" y="94"/>
      <point x="827" y="86"/>
      <point x="787" y="86" type="curve" smooth="yes"/>
      <point x="701" y="86"/>
      <point x="649" y="116"/>
      <point x="649" y="172" type="curve" smooth="yes"/>
      <point x="649" y="222"/>
      <point x="689" y="262"/>
      <point x="769" y="262" type="curve" smooth="yes"/>
      <point x="818" y="262"/>
      <point x="865" y="251"/>
      <point x="911" y="237" type="curve"/>
      <point x="919" y="270"/>
      <point x="929" y="305"/>
      <point x="938" y="338" type="curve"/>
      <point x="878" y="356"/>
      <point x="821" y="360"/>
      <point x="764" y="360" type="curve" smooth="yes"/>
      <point x="743" y="360"/>
      <point x="729" y="358"/>
      <point x="710" y="358" type="curve" smooth="yes"/>
      <point x="680" y="358"/>
      <point x="659" y="375"/>
      <point x="659" y="398" type="curve" smooth="yes"/>
      <point x="659" y="422"/>
      <point x="682" y="440"/>
      <point x="714" y="440" type="curve" smooth="yes"/>
      <point x="920" y="440" type="line"/>
      <point x="920" y="583" type="line"/>
      <point x="1029" y="583" type="line"/>
      <point x="1024" y="615"/>
      <point x="1019" y="647"/>
      <point x="1013" y="680" type="curve"/>
      <point x="-11" y="680" type="line"/>
      <point x="-5" y="647"/>
      <point x="0" y="615"/>
      <point x="5" y="583" type="curve"/>
      <point x="788" y="583" type="line"/>
      <point x="788" y="537" type="line"/>
      <point x="704" y="537" type="line" smooth="yes"/>
      <point x="617" y="537"/>
      <point x="541" y="484"/>
      <point x="541" y="399" type="curve" smooth="yes"/>
      <point x="541" y="366"/>
      <point x="560" y="330"/>
      <point x="593" y="306" type="curve"/>
      <point x="585" y="300" type="line"/>
      <point x="445" y="300" type="line"/>
      <point x="424" y="414"/>
      <point x="336" y="472"/>
      <point x="224" y="472" type="curve" smooth="yes"/>
      <point x="182" y="472"/>
      <point x="135" y="468"/>
      <point x="86" y="450" type="curve"/>
      <point x="113" y="355" type="line"/>
      <point x="151" y="366"/>
      <point x="190" y="371"/>
      <point x="221" y="371" type="curve" smooth="yes"/>
      <point x="288" y="371"/>
      <point x="337" y="325"/>
      <point x="337" y="254" type="curve" smooth="yes"/>
      <point x="337" y="180"/>
      <point x="287" y="135"/>
      <point x="220" y="135" type="curve" smooth="yes"/>
      <point x="151" y="135"/>
      <point x="85" y="166"/>
      <point x="37" y="210" type="curve"/>
      <point x="15" y="100" type="line"/>
      <point x="66" y="66"/>
      <point x="142" y="34"/>
    </contour>
  </outline>
</glyph>
<glyph name="dv_PhHa" format="1">
  <advance width="1253"/>
  <outline>
    <contour>
      <point x="1173" y="338" type="line"/>
      <point x="1113" y="356"/>
      <point x="1056" y="360"/>
      <point x="999" y="360" type="curve" smooth="yes"/>
      <point x="978" y="360"/>
      <point x="964" y="358"/>
      <point x="945" y="358" type="curve" smooth="yes"/>
      <point x="915" y="358"/>
      <point x="894" y="375"/>
      <point x="894" y="398" type="curve" smooth="yes"/>
      <point x="894" y="422"/>
      <point x="918" y="440"/>
      <point x="950" y="440" type="curve" smooth="yes"/>
      <point x="1155" y="440" type="line"/>
      <point x="1155" y="583" type="line"/>
      <point x="1265" y="583" type="line"/>
      <point x="1248" y="680" type="line"/>
      <point x="-11" y="680" type="line"/>
      <point x="-5" y="647"/>
      <point x="0" y="615"/>
      <point x="5" y="583" type="curve"/>
      <point x="81" y="583" type="line"/>
      <point x="81" y="377" type="line" smooth="yes"/>
      <point x="81" y="239"/>
      <point x="184" y="157"/>
      <point x="316" y="157" type="curve" smooth="yes"/>
      <point x="360" y="157"/>
      <point x="412" y="172"/>
      <point x="444" y="192" type="curve"/>
      <point x="444" y="0" type="line"/>
      <point x="567" y="-16" type="line"/>
      <point x="567" y="331" type="line"/>
      <point x="587" y="361"/>
      <point x="617" y="399"/>
      <point x="691" y="399" type="curve" smooth="yes"/>
      <point x="776" y="399" type="line"/>
      <point x="778" y="368"/>
      <point x="793" y="328"/>
      <point x="828" y="306" type="curve"/>
      <point x="783" y="271"/>
      <point x="759" y="225"/>
      <point x="759" y="170" type="curve" smooth="yes"/>
      <point x="759" y="50"/>
      <point x="853" y="-18"/>
      <point x="1010" y="-18" type="curve" smooth="yes"/>
      <point x="1069" y="-18"/>
      <point x="1118" y="-11"/>
      <point x="1173" y="5" type="curve"/>
      <point x="1146" y="106" type="line"/>
      <point x="1121" y="98"/>
      <point x="1102" y="95"/>
      <point x="1077" y="91" type="curve"/>
      <point x="1036" y="87" type="line" smooth="yes"/>
      <point x="1031" y="87"/>
      <point x="1027" y="86"/>
      <point x="1022" y="86" type="curve" smooth="yes"/>
      <point x="935" y="86"/>
      <point x="882" y="114"/>
      <point x="882" y="173" type="curve" smooth="yes"/>
      <point x="882" y="227"/>
      <point x="930" y="262"/>
      <point x="1004" y="262" type="curve" smooth="yes"/>
      <point x="1054" y="262"/>
      <point x="1101" y="251"/>
      <point x="1146" y="237" type="curve"/>
    </contour>
    <contour>
      <point x="444" y="363" type="line"/>
      <point x="436" y="299"/>
      <point x="387" y="260"/>
      <point x="321" y="260" type="curve" smooth="yes"/>
      <point x="245" y="260"/>
      <point x="204" y="305"/>
      <point x="204" y="377" type="curve" smooth="yes"/>
      <point x="204" y="583" type="line"/>
      <point x="444" y="583" type="line"/>
    </contour>
    <contour>
      <point x="567" y="583" type="line"/>
      <point x="1023" y="583" type="line"/>
      <point x="1023" y="537" type="line"/>
      <point x="958" y="537" type="line" smooth="yes"/>
      <point x="902" y="537"/>
      <point x="853" y="525"/>
      <point x="818" y="495" type="curve"/>
      <point x="688" y="495" type="line" smooth="yes"/>
      <point x="628" y="495"/>
      <point x="593" y="476"/>
      <point x="567" y="455" type="curve"/>
    </contour>
  </outline>
</glyph>
<glyph name="dv_THa" format="1">
  <advance width="909"/>
  <outline>
    <contour>
      <point x="829" y="338" type="line"/>
      <point x="769" y="356"/>
      <point x="712" y="360"/>
      <point x="655" y="360" type="curve" smooth="yes"/>
      <point x="634" y="360"/>
      <point x="620" y="358"/>
      <point x="601" y="358" type="curve" smooth="yes"/>
      <point x="571" y="358"/>
      <point x="550" y="375"/>
      <point x="550" y="398" type="curve" smooth="yes"/>
      <point x="550" y="422"/>
      <point x="574" y="440"/>
      <point x="606" y="440" type="curve" smooth="yes"/>
      <point x="811" y="440" type="line"/>
      <point x="811" y="583" type="line"/>
      <point x="921" y="583" type="line"/>
      <point x="904" y="680" type="line"/>
      <point x="-11" y="680" type="line"/>
      <point x="-5" y="647"/>
      <point x="0" y="615"/>
      <point x="5" y="583" type="curve"/>
      <point x="679" y="583" type="line"/>
      <point x="679" y="537" type="line"/>
      <point x="595" y="537" type="line" smooth="yes"/>
      <point x="534" y="537"/>
      <point x="478" y="511"/>
      <point x="451" y="466" type="curve"/>
      <point x="241" y="466" type="line" smooth="yes"/>
      <point x="124" y="466"/>
      <point x="58" y="394"/>
      <point x="58" y="297" type="curve" smooth="yes"/>
      <point x="58" y="200"/>
      <point x="144" y="77"/>
      <point x="213" y="-21" type="curve"/>
      <point x="249" y="-10"/>
      <point x="286" y="1"/>
      <point x="322" y="11" type="curve"/>
      <point x="242" y="135"/>
      <point x="179" y="230"/>
      <point x="179" y="293" type="curve" smooth="yes"/>
      <point x="179" y="339"/>
      <point x="214" y="368"/>
      <point x="282" y="368" type="curve" smooth="yes"/>
      <point x="436" y="368" type="line"/>
      <point x="444" y="344"/>
      <point x="461" y="323"/>
      <point x="484" y="306" type="curve"/>
      <point x="439" y="271"/>
      <point x="415" y="225"/>
      <point x="415" y="170" type="curve" smooth="yes"/>
      <point x="415" y="50"/>
      <point x="509" y="-18"/>
      <point x="666" y="-18" type="curve" smooth="yes"/>
      <point x="725" y="-18"/>
      <point x="774" y="-11"/>
      <point x="829" y="5" type="curve"/>
      <point x="802" y="106" type="line"/>
      <point x="758" y="92"/>
      <point x="716" y="88"/>
      <point x="670" y="88" type="curve" smooth="yes"/>
      <point x="587" y="88"/>
      <point x="538" y="116"/>
      <point x="538" y="173" type="curve" smooth="yes"/>
      <point x="538" y="228"/>
      <point x="588" y="260"/>
      <point x="666" y="260" type="curve" smooth="yes"/>
      <point x="713" y="260"/>
      <point x="759" y="251"/>
      <point x="802" y="237" type="curve"/>
    </contour>
  </outline>
</glyph>
<glyph name="dv_ThHa" format="1">
  <advance width="925"/>
  <outline>
    <contour>
      <point x="845" y="338" type="line"/>
      <point x="785" y="356"/>
      <point x="728" y="360"/>
      <point x="671" y="360" type="curve" smooth="yes"/>
      <point x="650" y="360"/>
      <point x="636" y="358"/>
      <point x="617" y="358" type="curve" smooth="yes"/>
      <point x="586" y="358"/>
      <point x="566" y="381"/>
      <point x="566" y="398" type="curve" smooth="yes"/>
      <point x="566" y="422"/>
      <point x="591" y="440"/>
      <point x="622" y="440" type="curve" smooth="yes"/>
      <point x="827" y="440" type="line"/>
      <point x="827" y="583" type="line"/>
      <point x="937" y="583" type="line"/>
      <point x="920" y="680" type="line"/>
      <point x="357" y="680" type="line"/>
      <point x="374" y="583" type="line"/>
      <point x="695" y="583" type="line"/>
      <point x="695" y="537" type="line"/>
      <point x="611" y="537" type="line" smooth="yes"/>
      <point x="526" y="537"/>
      <point x="447" y="487"/>
      <point x="447" y="401" type="curve" smooth="yes"/>
      <point x="447" y="365"/>
      <point x="466" y="330"/>
      <point x="500" y="306" type="curve"/>
      <point x="479" y="290"/>
      <point x="462" y="271"/>
      <point x="450" y="250" type="curve"/>
      <point x="429" y="238"/>
      <point x="398" y="230"/>
      <point x="361" y="230" type="curve" smooth="yes"/>
      <point x="276" y="230"/>
      <point x="231" y="289"/>
      <point x="222" y="329" type="curve"/>
      <point x="280" y="361"/>
      <point x="342" y="406"/>
      <point x="342" y="521" type="curve" smooth="yes"/>
      <point x="342" y="622"/>
      <point x="268" y="697"/>
      <point x="181" y="697" type="curve" smooth="yes"/>
      <point x="101" y="697"/>
      <point x="45" y="647"/>
      <point x="45" y="577" type="curve" smooth="yes"/>
      <point x="45" y="513"/>
      <point x="99" y="474"/>
      <point x="159" y="474" type="curve" smooth="yes"/>
      <point x="197" y="474"/>
      <point x="232" y="493"/>
      <point x="240" y="516" type="curve"/>
      <point x="240" y="427"/>
      <point x="163" y="403"/>
      <point x="126" y="390" type="curve"/>
      <point x="118" y="380"/>
      <point x="110" y="371"/>
      <point x="102" y="360" type="curve"/>
      <point x="102" y="245"/>
      <point x="209" y="128"/>
      <point x="356" y="128" type="curve" smooth="yes"/>
      <point x="385" y="128"/>
      <point x="411" y="131"/>
      <point x="435" y="137" type="curve"/>
      <point x="460" y="35"/>
      <point x="536" y="-18"/>
      <point x="682" y="-18" type="curve" smooth="yes"/>
      <point x="741" y="-18"/>
      <point x="790" y="-11"/>
      <point x="845" y="5" type="curve"/>
      <point x="818" y="106" type="line"/>
      <point x="777" y="93"/>
      <point x="734" y="86"/>
      <point x="694" y="86" type="curve" smooth="yes"/>
      <point x="599" y="86"/>
      <point x="556" y="118"/>
      <point x="556" y="174" type="curve" smooth="yes"/>
      <point x="556" y="224"/>
      <point x="605" y="262"/>
      <point x="676" y="262" type="curve" smooth="yes"/>
      <point x="726" y="262"/>
      <point x="773" y="251"/>
      <point x="818" y="237" type="curve"/>
    </contour>
    <contour>
      <point x="170" y="616" type="curve" smooth="yes"/>
      <point x="185" y="616"/>
      <point x="199" y="602"/>
      <point x="204" y="591" type="curve"/>
      <point x="202" y="568"/>
      <point x="188" y="551"/>
      <point x="163" y="551" type="curve" smooth="yes"/>
      <point x="148" y="551"/>
      <point x="133" y="564"/>
      <point x="133" y="581" type="curve" smooth="yes"/>
      <point x="133" y="603"/>
      <point x="150" y="616"/>
    </contour>
  </outline>
</glyph>
<glyph name="dv_ThR.half" format="1">
  <advance width="367"/>
  <outline>
    <contour>
      <point x="475" y="371" type="line"/>
      <point x="472" y="302"/>
      <point x="416" y="260"/>
      <point x="347" y="260" type="curve" smooth="yes"/>
      <point x="281" y="260"/>
      <point x="241" y="296"/>
      <point x="223" y="329" type="curve"/>
      <point x="281" y="362"/>
      <point x="342" y="406"/>
      <point x="342" y="521" type="curve" smooth="yes"/>
      <point x="342" y="619"/>
      <point x="269" y="697"/>
      <point x="181" y="697" type="curve" smooth="yes"/>
      <point x="101" y="697"/>
      <point x="45" y="647"/>
      <point x="45" y="577" type="curve" smooth="yes"/>
      <point x="45" y="513"/>
      <point x="99" y="474"/>
      <point x="159" y="474" type="curve" smooth="yes"/>
      <point x="197" y="474"/>
      <point x="232" y="493"/>
      <point x="240" y="516" type="curve"/>
      <point x="247" y="455"/>
      <point x="197" y="420"/>
      <point x="126" y="390" type="curve"/>
      <point x="118" y="380"/>
      <point x="110" y="371"/>
      <point x="102" y="360" type="curve"/>
      <point x="102" y="265"/>
      <point x="184" y="206"/>
      <point x="277" y="169" type="curve"/>
      <point x="174" y="9" type="line"/>
      <point x="213" y="0"/>
      <point x="252" y="-10"/>
      <point x="291" y="-20" type="curve"/>
      <point x="396" y="164" type="line"/>
      <point x="431" y="168"/>
      <point x="453" y="179"/>
      <point x="475" y="192" type="curve"/>
    </contour>
    <contour>
      <point x="170" y="616" type="curve" smooth="yes"/>
      <point x="185" y="616"/>
      <point x="199" y="602"/>
      <point x="204" y="591" type="curve"/>
      <point x="202" y="568"/>
      <point x="188" y="551"/>
      <point x="163" y="551" type="curve" smooth="yes"/>
      <point x="148" y="551"/>
      <point x="133" y="564"/>
      <point x="133" y="581" type="curve" smooth="yes"/>
      <point x="133" y="603"/>
      <point x="150" y="616"/>
    </contour>
  </outline>
</glyph>
<glyph name="dv_VHa" format="1">
  <advance width="1041"/>
  <outline>
    <contour>
      <point x="961" y="338" type="curve"/>
      <point x="901" y="356"/>
      <point x="844" y="360"/>
      <point x="787" y="360" type="curve" smooth="yes"/>
      <point x="766" y="360"/>
      <point x="752" y="358"/>
      <point x="733" y="358" type="curve" smooth="yes"/>
      <point x="704" y="358"/>
      <point x="682" y="375"/>
      <point x="682" y="398" type="curve" smooth="yes"/>
      <point x="682" y="422"/>
      <point x="706" y="440"/>
      <point x="738" y="440" type="curve" smooth="yes"/>
      <point x="943" y="440" type="line"/>
      <point x="943" y="583" type="line"/>
      <point x="1053" y="583" type="line"/>
      <point x="1036" y="680" type="line"/>
      <point x="-11" y="680" type="line"/>
      <point x="-5" y="647"/>
      <point x="0" y="615"/>
      <point x="5" y="583" type="curve"/>
      <point x="812" y="583" type="line"/>
      <point x="812" y="537" type="line"/>
      <point x="728" y="537" type="line" smooth="yes"/>
      <point x="642" y="537"/>
      <point x="563" y="487"/>
      <point x="563" y="401" type="curve" smooth="yes"/>
      <point x="563" y="365"/>
      <point x="583" y="330"/>
      <point x="616" y="306" type="curve"/>
      <point x="571" y="271"/>
      <point x="547" y="225"/>
      <point x="547" y="170" type="curve" smooth="yes"/>
      <point x="547" y="52"/>
      <point x="640" y="-18"/>
      <point x="799" y="-18" type="curve" smooth="yes"/>
      <point x="858" y="-18"/>
      <point x="907" y="-11"/>
      <point x="961" y="5" type="curve"/>
      <point x="953" y="38"/>
      <point x="943" y="72"/>
      <point x="934" y="106" type="curve"/>
      <point x="891" y="93"/>
      <point x="850" y="88"/>
      <point x="803" y="88" type="curve" smooth="yes"/>
      <point x="720" y="88"/>
      <point x="670" y="116"/>
      <point x="670" y="173" type="curve" smooth="yes"/>
      <point x="670" y="228"/>
      <point x="721" y="260"/>
      <point x="799" y="260" type="curve" smooth="yes"/>
      <point x="845" y="260"/>
      <point x="891" y="251"/>
      <point x="934" y="237" type="curve"/>
      <point x="943" y="270"/>
      <point x="953" y="305"/>
    </contour>
    <contour>
      <point x="43" y="284" type="curve" smooth="yes"/>
      <point x="43" y="162"/>
      <point x="138" y="69"/>
      <point x="273" y="69" type="curve"/>
      <point x="409" y="72"/>
      <point x="499" y="168"/>
      <point x="499" y="285" type="curve" smooth="yes"/>
      <point x="499" y="406"/>
      <point x="406" y="499"/>
      <point x="273" y="501" type="curve"/>
      <point x="135" y="500"/>
      <point x="43" y="405"/>
    </contour>
    <contour>
      <point x="271" y="399" type="curve" smooth="yes"/>
      <point x="332" y="399"/>
      <point x="380" y="352"/>
      <point x="380" y="285" type="curve" smooth="yes"/>
      <point x="380" y="221"/>
      <point x="334" y="171"/>
      <point x="271" y="171" type="curve" smooth="yes"/>
      <point x="211" y="171"/>
      <point x="162" y="219"/>
      <point x="162" y="285" type="curve" smooth="yes"/>
      <point x="162" y="349"/>
      <point x="209" y="399"/>
    </contour>
  </outline>
</glyph>
